<mxfile host="app.diagrams.net" modified="2022-05-24T17:06:29.105Z" agent="5.0 (X11; Linux x86_64) AppleWebKit/537.36 (KHTML, like Gecko) Chrome/101.0.4951.41 Safari/537.36" etag="TlouzrBr7oPg7fp2ds8T" version="18.1.2" type="github">
  <diagram id="K14oZXPWYWjABnxPdLCR" name="Page-1">
    <mxGraphModel dx="3243" dy="1104" grid="0" gridSize="10" guides="1" tooltips="1" connect="1" arrows="1" fold="1" page="0" pageScale="1" pageWidth="827" pageHeight="1169" math="0" shadow="0">
      <root>
        <mxCell id="0" />
        <mxCell id="1" parent="0" />
        <mxCell id="__zBR7lWoKVZhfvjV7_m-212" value="" style="rounded=0;whiteSpace=wrap;html=1;labelBackgroundColor=none;fontSize=18;fillColor=#e1d5e7;strokeColor=#9673a6;" parent="1" vertex="1">
          <mxGeometry x="-45" y="2371" width="3569" height="679" as="geometry" />
        </mxCell>
        <mxCell id="__zBR7lWoKVZhfvjV7_m-200" value="" style="group" parent="1" vertex="1" connectable="0">
          <mxGeometry x="1040" y="2760" width="260" height="154" as="geometry" />
        </mxCell>
        <mxCell id="__zBR7lWoKVZhfvjV7_m-197" value="" style="rounded=0;whiteSpace=wrap;html=1;labelBackgroundColor=none;fontSize=18;fillColor=#fff2cc;strokeColor=#d6b656;dashed=1;" parent="__zBR7lWoKVZhfvjV7_m-200" vertex="1">
          <mxGeometry width="260" height="154" as="geometry" />
        </mxCell>
        <mxCell id="__zBR7lWoKVZhfvjV7_m-198" value="Email" style="text;html=1;strokeColor=none;fillColor=none;align=center;verticalAlign=middle;whiteSpace=wrap;rounded=0;dashed=1;labelBackgroundColor=none;fontSize=18;" parent="__zBR7lWoKVZhfvjV7_m-200" vertex="1">
          <mxGeometry x="14" y="8" width="60" height="30" as="geometry" />
        </mxCell>
        <UserObject label="" lucidchartObjectId="b3ShS5xS8G2q" id="__zBR7lWoKVZhfvjV7_m-124">
          <mxCell style="html=1;overflow=block;blockSpacing=1;whiteSpace=wrap;fontSize=16.7;spacing=3.8;strokeColor=#82b366;strokeOpacity=100;fillOpacity=100;rounded=1;absoluteArcSize=1;arcSize=9;fillColor=#d5e8d4;strokeWidth=0.8;" parent="1" vertex="1">
            <mxGeometry x="-45" y="815" width="3565" height="930" as="geometry" />
          </mxCell>
        </UserObject>
        <UserObject label="" lucidchartObjectId="b3ShS5xS8G2q" id="__zBR7lWoKVZhfvjV7_m-1">
          <mxCell style="html=1;overflow=block;blockSpacing=1;whiteSpace=wrap;fontSize=16.7;fontColor=#3a414a;spacing=3.8;strokeColor=#3a414a;strokeOpacity=100;fillOpacity=100;rounded=1;absoluteArcSize=1;arcSize=9;fillColor=#fff0fb;strokeWidth=0.8;" parent="1" vertex="1">
            <mxGeometry x="-45" width="2579" height="780" as="geometry" />
          </mxCell>
        </UserObject>
        <UserObject label="Login" lucidchartObjectId="3LShcwAr7Adq" id="__zBR7lWoKVZhfvjV7_m-2">
          <mxCell style="html=1;overflow=block;blockSpacing=1;whiteSpace=wrap;fontSize=16.7;fontColor=#333333;spacing=9;strokeColor=#5e5e5e;strokeOpacity=100;rounded=1;absoluteArcSize=1;arcSize=9;strokeWidth=2.3;" parent="1" vertex="1">
            <mxGeometry x="150" y="225" width="120" height="90" as="geometry" />
          </mxCell>
        </UserObject>
        <UserObject label="1º Acesso?" lucidchartObjectId="nNShkwoOQGuS" id="__zBR7lWoKVZhfvjV7_m-3">
          <mxCell style="html=1;overflow=block;blockSpacing=1;whiteSpace=wrap;rhombus;fontSize=16.7;fontColor=#3a414a;spacing=3.8;strokeColor=#3a414a;strokeOpacity=100;rounded=1;absoluteArcSize=1;arcSize=9;strokeWidth=0.8;" parent="1" vertex="1">
            <mxGeometry x="735" y="225" width="120" height="90" as="geometry" />
          </mxCell>
        </UserObject>
        <UserObject label="" lucidchartObjectId="DNShEZnGyO3j" id="__zBR7lWoKVZhfvjV7_m-4">
          <mxCell style="html=1;jettySize=18;whiteSpace=wrap;fontSize=13.3;fontColor=#333333;fontStyle=1;strokeColor=#3a414a;strokeOpacity=100;strokeWidth=0.8;rounded=1;arcSize=12;edgeStyle=orthogonalEdgeStyle;startArrow=none;endArrow=block;endFill=1;exitX=0.984;exitY=0.5;exitPerimeter=0;entryX=-0.009;entryY=0.5;entryPerimeter=0;" parent="1" source="__zBR7lWoKVZhfvjV7_m-3" target="__zBR7lWoKVZhfvjV7_m-6" edge="1">
            <mxGeometry width="100" height="100" relative="1" as="geometry">
              <Array as="points" />
            </mxGeometry>
          </mxCell>
        </UserObject>
        <mxCell id="__zBR7lWoKVZhfvjV7_m-5" value="Yes" style="text;html=1;resizable=0;labelBackgroundColor=default;align=center;verticalAlign=middle;fontStyle=1;fontColor=#333333;fontSize=13.3;" parent="__zBR7lWoKVZhfvjV7_m-4" vertex="1">
          <mxGeometry relative="1" as="geometry" />
        </mxCell>
        <UserObject label="[botão] Continuar" lucidchartObjectId="ENShs.~t1La." id="__zBR7lWoKVZhfvjV7_m-6">
          <mxCell style="html=1;overflow=block;blockSpacing=1;whiteSpace=wrap;fontSize=16.7;fontColor=#3a414a;spacing=9;strokeColor=#5e5e5e;strokeOpacity=100;rounded=1;absoluteArcSize=1;arcSize=9;strokeWidth=2.3;" parent="1" vertex="1">
            <mxGeometry x="930" y="225" width="120" height="90" as="geometry" />
          </mxCell>
        </UserObject>
        <UserObject label="" lucidchartObjectId="qOShmNDZMit~" id="__zBR7lWoKVZhfvjV7_m-7">
          <mxCell style="html=1;jettySize=18;whiteSpace=wrap;fontSize=13;strokeColor=#3a414a;strokeOpacity=100;strokeWidth=0.8;rounded=1;arcSize=12;edgeStyle=orthogonalEdgeStyle;startArrow=none;endArrow=block;endFill=1;exitX=1.009;exitY=0.5;exitPerimeter=0;entryX=-0.009;entryY=0.5;entryPerimeter=0;" parent="1" source="__zBR7lWoKVZhfvjV7_m-6" target="__zBR7lWoKVZhfvjV7_m-8" edge="1">
            <mxGeometry width="100" height="100" relative="1" as="geometry">
              <Array as="points" />
            </mxGeometry>
          </mxCell>
        </UserObject>
        <UserObject label="Enviar Email" lucidchartObjectId="rOSh5a93LZX~" id="__zBR7lWoKVZhfvjV7_m-8">
          <mxCell style="html=1;overflow=block;blockSpacing=1;whiteSpace=wrap;fontSize=16.7;fontColor=#3a414a;spacing=9;strokeColor=#5e5e5e;strokeOpacity=100;rounded=1;absoluteArcSize=1;arcSize=9;strokeWidth=2.3;" parent="1" vertex="1">
            <mxGeometry x="1125" y="225" width="120" height="90" as="geometry" />
          </mxCell>
        </UserObject>
        <UserObject label="" lucidchartObjectId="LOShQjqL3yAb" id="__zBR7lWoKVZhfvjV7_m-9">
          <mxCell style="html=1;jettySize=18;whiteSpace=wrap;fontSize=13;strokeColor=#3a414a;strokeOpacity=100;strokeWidth=0.8;rounded=1;arcSize=12;edgeStyle=orthogonalEdgeStyle;startArrow=none;endArrow=block;endFill=1;exitX=1.009;exitY=0.5;exitPerimeter=0;entryX=-0.003;entryY=0.5;entryPerimeter=0;" parent="1" source="__zBR7lWoKVZhfvjV7_m-8" target="__zBR7lWoKVZhfvjV7_m-10" edge="1">
            <mxGeometry width="100" height="100" relative="1" as="geometry">
              <Array as="points" />
            </mxGeometry>
          </mxCell>
        </UserObject>
        <UserObject label="[botão] Criar Senhas" lucidchartObjectId="SOShUknrg~iW" id="__zBR7lWoKVZhfvjV7_m-10">
          <mxCell style="html=1;overflow=block;blockSpacing=1;whiteSpace=wrap;shape=process;fontSize=16.7;fontColor=#3a414a;spacing=3.8;strokeColor=#3a414a;strokeOpacity=100;rounded=1;absoluteArcSize=1;arcSize=9;strokeWidth=0.8;" parent="1" vertex="1">
            <mxGeometry x="1320" y="225" width="120" height="90" as="geometry" />
          </mxCell>
        </UserObject>
        <UserObject label="" lucidchartObjectId="8PShRmp42KYx" id="__zBR7lWoKVZhfvjV7_m-11">
          <mxCell style="html=1;jettySize=18;whiteSpace=wrap;fontSize=13;strokeColor=#3a414a;strokeOpacity=100;strokeWidth=0.8;rounded=1;arcSize=12;edgeStyle=orthogonalEdgeStyle;startArrow=none;endArrow=block;endFill=1;exitX=1.003;exitY=0.5;exitPerimeter=0;entryX=0.016;entryY=0.5;entryPerimeter=0;" parent="1" source="__zBR7lWoKVZhfvjV7_m-10" target="__zBR7lWoKVZhfvjV7_m-12" edge="1">
            <mxGeometry width="100" height="100" relative="1" as="geometry">
              <Array as="points" />
            </mxGeometry>
          </mxCell>
        </UserObject>
        <UserObject label="Tem Senha Acesso?" lucidchartObjectId="9PShlVgb-Pw~" id="__zBR7lWoKVZhfvjV7_m-12">
          <mxCell style="html=1;overflow=block;blockSpacing=1;whiteSpace=wrap;rhombus;fontSize=16.7;fontColor=#3a414a;spacing=3.8;strokeColor=#3a414a;strokeOpacity=100;rounded=1;absoluteArcSize=1;arcSize=9;strokeWidth=0.8;" parent="1" vertex="1">
            <mxGeometry x="1915" y="225" width="120" height="90" as="geometry" />
          </mxCell>
        </UserObject>
        <UserObject label="" lucidchartObjectId="nQShfH1o2ymO" id="__zBR7lWoKVZhfvjV7_m-13">
          <mxCell style="html=1;jettySize=18;whiteSpace=wrap;fontSize=13.3;fontColor=#333333;fontStyle=1;strokeColor=#3a414a;strokeOpacity=100;strokeWidth=0.8;rounded=1;arcSize=12;edgeStyle=orthogonalEdgeStyle;startArrow=none;endArrow=block;endFill=1;exitX=0.984;exitY=0.5;exitPerimeter=0;entryX=0;entryY=0.5;entryDx=0;entryDy=0;" parent="1" source="__zBR7lWoKVZhfvjV7_m-12" target="__zBR7lWoKVZhfvjV7_m-21" edge="1">
            <mxGeometry width="100" height="100" relative="1" as="geometry">
              <Array as="points" />
              <mxPoint x="2111.92" y="270" as="targetPoint" />
            </mxGeometry>
          </mxCell>
        </UserObject>
        <mxCell id="__zBR7lWoKVZhfvjV7_m-14" value="Yes" style="text;html=1;resizable=0;labelBackgroundColor=default;align=center;verticalAlign=middle;fontStyle=1;fontColor=#333333;fontSize=13.3;" parent="__zBR7lWoKVZhfvjV7_m-13" vertex="1">
          <mxGeometry relative="1" as="geometry" />
        </mxCell>
        <UserObject label="" lucidchartObjectId="TQSh1TQ3EUXd" id="__zBR7lWoKVZhfvjV7_m-16">
          <mxCell style="html=1;jettySize=18;whiteSpace=wrap;fontSize=13.3;fontColor=#333333;fontStyle=1;strokeColor=#3a414a;strokeOpacity=100;strokeWidth=0.8;rounded=1;arcSize=12;edgeStyle=orthogonalEdgeStyle;startArrow=none;endArrow=block;endFill=1;exitX=0.5;exitY=0.988;exitPerimeter=0;entryX=0.5;entryY=-0.012;entryPerimeter=0;" parent="1" source="__zBR7lWoKVZhfvjV7_m-12" target="__zBR7lWoKVZhfvjV7_m-18" edge="1">
            <mxGeometry width="100" height="100" relative="1" as="geometry">
              <Array as="points" />
            </mxGeometry>
          </mxCell>
        </UserObject>
        <mxCell id="__zBR7lWoKVZhfvjV7_m-17" value="No" style="text;html=1;resizable=0;labelBackgroundColor=default;align=center;verticalAlign=middle;fontStyle=1;fontColor=#333333;fontSize=13.3;" parent="__zBR7lWoKVZhfvjV7_m-16" vertex="1">
          <mxGeometry relative="1" as="geometry" />
        </mxCell>
        <UserObject label="Inserir Senha de Acesso" lucidchartObjectId="UQShmPp.PU5_" id="__zBR7lWoKVZhfvjV7_m-18">
          <mxCell style="html=1;overflow=block;blockSpacing=1;whiteSpace=wrap;fontSize=16.7;fontColor=#3a414a;spacing=9;strokeColor=#5e5e5e;strokeOpacity=100;rounded=1;absoluteArcSize=1;arcSize=9;strokeWidth=2.3;" parent="1" vertex="1">
            <mxGeometry x="1915" y="390" width="120" height="90" as="geometry" />
          </mxCell>
        </UserObject>
        <UserObject label="Inserir Senha Transacional" lucidchartObjectId="lRShEj~k1x-4" id="__zBR7lWoKVZhfvjV7_m-21">
          <mxCell style="html=1;overflow=block;blockSpacing=1;whiteSpace=wrap;fontSize=16.7;fontColor=#3a414a;spacing=9;strokeColor=#5e5e5e;strokeOpacity=100;rounded=1;absoluteArcSize=1;arcSize=9;strokeWidth=2.3;" parent="1" vertex="1">
            <mxGeometry x="2110" y="390" width="120" height="90" as="geometry" />
          </mxCell>
        </UserObject>
        <UserObject label="" lucidchartObjectId="VRShpL~MimVk" id="__zBR7lWoKVZhfvjV7_m-22">
          <mxCell style="html=1;jettySize=18;whiteSpace=wrap;fontSize=13;strokeColor=#3a414a;strokeOpacity=100;strokeWidth=0.8;rounded=1;arcSize=12;edgeStyle=orthogonalEdgeStyle;startArrow=none;endArrow=block;endFill=1;exitX=0.5;exitY=1.012;exitPerimeter=0;entryX=0.5;entryY=-0.012;entryPerimeter=0;" parent="1" source="__zBR7lWoKVZhfvjV7_m-18" target="__zBR7lWoKVZhfvjV7_m-23" edge="1">
            <mxGeometry width="100" height="100" relative="1" as="geometry">
              <Array as="points" />
            </mxGeometry>
          </mxCell>
        </UserObject>
        <UserObject label="[botão] Continuar" lucidchartObjectId="YRShV_wXpkCL" id="__zBR7lWoKVZhfvjV7_m-23">
          <mxCell style="html=1;overflow=block;blockSpacing=1;whiteSpace=wrap;fontSize=16.7;fontColor=#3a414a;spacing=9;strokeColor=#5e5e5e;strokeOpacity=100;rounded=1;absoluteArcSize=1;arcSize=9;strokeWidth=2.3;" parent="1" vertex="1">
            <mxGeometry x="1915" y="555" width="120" height="90" as="geometry" />
          </mxCell>
        </UserObject>
        <UserObject label="" lucidchartObjectId="~RShSYWOXcAD" id="__zBR7lWoKVZhfvjV7_m-24">
          <mxCell style="html=1;jettySize=18;whiteSpace=wrap;fontSize=13;strokeColor=#3a414a;strokeOpacity=100;strokeWidth=0.8;rounded=1;arcSize=12;edgeStyle=orthogonalEdgeStyle;startArrow=none;endArrow=block;endFill=1;exitX=0.5;exitY=1.012;exitPerimeter=0;entryX=0.5;entryY=-0.012;entryPerimeter=0;" parent="1" source="__zBR7lWoKVZhfvjV7_m-21" target="__zBR7lWoKVZhfvjV7_m-25" edge="1">
            <mxGeometry width="100" height="100" relative="1" as="geometry">
              <Array as="points" />
            </mxGeometry>
          </mxCell>
        </UserObject>
        <UserObject label="[botão] Concluir" lucidchartObjectId="bSSh_Yqt-mBl" id="__zBR7lWoKVZhfvjV7_m-25">
          <mxCell style="html=1;overflow=block;blockSpacing=1;whiteSpace=wrap;fontSize=16.7;fontColor=#3a414a;spacing=9;strokeColor=#5e5e5e;strokeOpacity=100;rounded=1;absoluteArcSize=1;arcSize=9;strokeWidth=2.3;" parent="1" vertex="1">
            <mxGeometry x="2110" y="555" width="120" height="90" as="geometry" />
          </mxCell>
        </UserObject>
        <UserObject label="" lucidchartObjectId="LSShZCJXmAQW" id="__zBR7lWoKVZhfvjV7_m-26">
          <mxCell style="html=1;jettySize=18;whiteSpace=wrap;fontSize=13;strokeColor=#3a414a;strokeOpacity=100;strokeWidth=0.8;rounded=1;arcSize=12;edgeStyle=orthogonalEdgeStyle;startArrow=none;endArrow=block;endFill=1;exitX=1.009;exitY=0.5;exitPerimeter=0;entryX=-0.009;entryY=0.5;entryPerimeter=0;" parent="1" source="__zBR7lWoKVZhfvjV7_m-23" target="__zBR7lWoKVZhfvjV7_m-21" edge="1">
            <mxGeometry width="100" height="100" relative="1" as="geometry">
              <Array as="points">
                <mxPoint x="2070" y="600" />
                <mxPoint x="2070" y="435" />
              </Array>
            </mxGeometry>
          </mxCell>
        </UserObject>
        <UserObject label="Registro Usuário" lucidchartObjectId="8SShuhbnFG9l" id="__zBR7lWoKVZhfvjV7_m-27">
          <mxCell style="html=1;overflow=block;blockSpacing=1;whiteSpace=wrap;fontSize=16.7;fontColor=#3a414a;spacing=9;strokeColor=#5e5e5e;strokeOpacity=100;rounded=1;absoluteArcSize=1;arcSize=9;strokeWidth=2.3;" parent="1" vertex="1">
            <mxGeometry x="150" y="60" width="120" height="90" as="geometry" />
          </mxCell>
        </UserObject>
        <UserObject label="" lucidchartObjectId="gTShk7bVomdu" id="__zBR7lWoKVZhfvjV7_m-28">
          <mxCell style="html=1;jettySize=18;whiteSpace=wrap;fontSize=13;strokeColor=#3a414a;strokeOpacity=100;strokeWidth=0.8;rounded=1;arcSize=12;edgeStyle=orthogonalEdgeStyle;startArrow=none;endArrow=block;endFill=1;exitX=1.009;exitY=0.5;exitPerimeter=0;entryX=0.5;entryY=-0.012;entryPerimeter=0;" parent="1" source="__zBR7lWoKVZhfvjV7_m-27" target="__zBR7lWoKVZhfvjV7_m-8" edge="1">
            <mxGeometry width="100" height="100" relative="1" as="geometry">
              <Array as="points" />
            </mxGeometry>
          </mxCell>
        </UserObject>
        <UserObject label="" lucidchartObjectId="LTShApzl4rIT" id="__zBR7lWoKVZhfvjV7_m-29">
          <mxCell style="html=1;jettySize=18;whiteSpace=wrap;fontSize=13;strokeColor=#3a414a;strokeOpacity=100;strokeWidth=0.8;rounded=1;arcSize=12;edgeStyle=orthogonalEdgeStyle;startArrow=none;endArrow=block;endFill=1;exitX=1.009;exitY=0.5;exitPerimeter=0;entryX=-0.009;entryY=0.5;entryPerimeter=0;" parent="1" source="__zBR7lWoKVZhfvjV7_m-25" target="__zBR7lWoKVZhfvjV7_m-30" edge="1">
            <mxGeometry width="100" height="100" relative="1" as="geometry">
              <Array as="points" />
            </mxGeometry>
          </mxCell>
        </UserObject>
        <UserObject label="[botão] Acessar Conta" lucidchartObjectId="MTShDTbVjY.V" id="__zBR7lWoKVZhfvjV7_m-30">
          <mxCell style="html=1;overflow=block;blockSpacing=1;whiteSpace=wrap;fontSize=16.7;fontColor=#3a414a;spacing=9;strokeColor=#5e5e5e;strokeOpacity=100;rounded=1;absoluteArcSize=1;arcSize=9;strokeWidth=2.3;" parent="1" vertex="1">
            <mxGeometry x="2305" y="555" width="120" height="90" as="geometry" />
          </mxCell>
        </UserObject>
        <UserObject label="" lucidchartObjectId="aUShhu6yPqYl" id="__zBR7lWoKVZhfvjV7_m-31">
          <mxCell style="html=1;jettySize=18;whiteSpace=wrap;fontSize=13;strokeColor=#3a414a;strokeOpacity=100;strokeWidth=0.8;rounded=1;arcSize=12;edgeStyle=orthogonalEdgeStyle;startArrow=none;endArrow=block;endFill=1;exitX=1.009;exitY=0.5;exitPerimeter=0;entryX=-0.009;entryY=0.5;entryPerimeter=0;" parent="1" source="__zBR7lWoKVZhfvjV7_m-30" target="__zBR7lWoKVZhfvjV7_m-2" edge="1">
            <mxGeometry width="100" height="100" relative="1" as="geometry">
              <Array as="points">
                <mxPoint x="2462" y="600" />
                <mxPoint x="2462" y="698" />
                <mxPoint x="98" y="698" />
                <mxPoint x="98" y="270" />
              </Array>
            </mxGeometry>
          </mxCell>
        </UserObject>
        <UserObject label="" lucidchartObjectId="WUShhyE2KTEw" id="__zBR7lWoKVZhfvjV7_m-32">
          <mxCell style="html=1;jettySize=18;whiteSpace=wrap;fontSize=13.3;fontColor=#333333;fontStyle=1;strokeColor=#3a414a;strokeOpacity=100;strokeWidth=0.8;rounded=1;arcSize=12;edgeStyle=orthogonalEdgeStyle;startArrow=none;endArrow=block;endFill=1;exitX=0.5;exitY=0.988;exitPerimeter=0;entryX=0.5;entryY=-0.012;entryPerimeter=0;" parent="1" source="__zBR7lWoKVZhfvjV7_m-3" target="__zBR7lWoKVZhfvjV7_m-34" edge="1">
            <mxGeometry width="100" height="100" relative="1" as="geometry">
              <Array as="points" />
            </mxGeometry>
          </mxCell>
        </UserObject>
        <mxCell id="__zBR7lWoKVZhfvjV7_m-33" value="No" style="text;html=1;resizable=0;labelBackgroundColor=default;align=center;verticalAlign=middle;fontStyle=1;fontColor=#333333;fontSize=13.3;" parent="__zBR7lWoKVZhfvjV7_m-32" vertex="1">
          <mxGeometry relative="1" as="geometry" />
        </mxCell>
        <UserObject label="Inserir Senha de Acesso" lucidchartObjectId="XUSho0rWNq1M" id="__zBR7lWoKVZhfvjV7_m-34">
          <mxCell style="html=1;overflow=block;blockSpacing=1;whiteSpace=wrap;fontSize=16.7;fontColor=#3a414a;spacing=9;strokeColor=#5e5e5e;strokeOpacity=100;rounded=1;absoluteArcSize=1;arcSize=9;strokeWidth=2.3;" parent="1" vertex="1">
            <mxGeometry x="735" y="390" width="120" height="90" as="geometry" />
          </mxCell>
        </UserObject>
        <UserObject label="" lucidchartObjectId="9UShKwob_tML" id="__zBR7lWoKVZhfvjV7_m-35">
          <mxCell style="html=1;jettySize=18;whiteSpace=wrap;fontSize=13;strokeColor=#3a414a;strokeOpacity=100;strokeWidth=0.8;rounded=1;arcSize=12;edgeStyle=orthogonalEdgeStyle;startArrow=none;endArrow=block;endFill=1;exitX=1.009;exitY=0.5;exitPerimeter=0;entryX=-0.009;entryY=0.5;entryPerimeter=0;" parent="1" source="__zBR7lWoKVZhfvjV7_m-34" target="__zBR7lWoKVZhfvjV7_m-36" edge="1">
            <mxGeometry width="100" height="100" relative="1" as="geometry">
              <Array as="points" />
            </mxGeometry>
          </mxCell>
        </UserObject>
        <UserObject label="[botão] Acessar Conta" lucidchartObjectId="-UShTdAipapL" id="__zBR7lWoKVZhfvjV7_m-36">
          <mxCell style="html=1;overflow=block;blockSpacing=1;whiteSpace=wrap;fontSize=16.7;fontColor=#3a414a;spacing=9;strokeColor=#5e5e5e;strokeOpacity=100;rounded=1;absoluteArcSize=1;arcSize=9;strokeWidth=2.3;" parent="1" vertex="1">
            <mxGeometry x="930" y="390" width="120" height="90" as="geometry" />
          </mxCell>
        </UserObject>
        <UserObject label="[link] Esqueci Minha Senha" lucidchartObjectId="qVSh_ED24Aq_" id="__zBR7lWoKVZhfvjV7_m-37">
          <mxCell style="html=1;overflow=block;blockSpacing=1;whiteSpace=wrap;fontSize=16.7;fontColor=#3a414a;spacing=9;strokeColor=#5e5e5e;strokeOpacity=100;rounded=1;absoluteArcSize=1;arcSize=9;strokeWidth=2.3;" parent="1" vertex="1">
            <mxGeometry x="735" y="555" width="120" height="90" as="geometry" />
          </mxCell>
        </UserObject>
        <UserObject label="Inserir CPF" lucidchartObjectId="_VShZu47K3C9" id="__zBR7lWoKVZhfvjV7_m-38">
          <mxCell style="html=1;overflow=block;blockSpacing=1;whiteSpace=wrap;fontSize=16.7;fontColor=#3a414a;spacing=9;strokeColor=#5e5e5e;strokeOpacity=100;rounded=1;absoluteArcSize=1;arcSize=9;strokeWidth=2.3;" parent="1" vertex="1">
            <mxGeometry x="345" y="225" width="120" height="90" as="geometry" />
          </mxCell>
        </UserObject>
        <UserObject label="" lucidchartObjectId="5WShk4WQlcwy" id="__zBR7lWoKVZhfvjV7_m-39">
          <mxCell style="html=1;jettySize=18;whiteSpace=wrap;fontSize=13;strokeColor=#3a414a;strokeOpacity=100;strokeWidth=0.8;rounded=1;arcSize=12;edgeStyle=orthogonalEdgeStyle;startArrow=none;endArrow=block;endFill=1;exitX=1.009;exitY=0.5;exitPerimeter=0;entryX=-0.009;entryY=0.5;entryPerimeter=0;" parent="1" source="__zBR7lWoKVZhfvjV7_m-2" target="__zBR7lWoKVZhfvjV7_m-38" edge="1">
            <mxGeometry width="100" height="100" relative="1" as="geometry">
              <Array as="points" />
            </mxGeometry>
          </mxCell>
        </UserObject>
        <UserObject label="" lucidchartObjectId="_WSho7~eOEk8" id="__zBR7lWoKVZhfvjV7_m-40">
          <mxCell style="html=1;jettySize=18;whiteSpace=wrap;fontSize=13;strokeColor=#3a414a;strokeOpacity=100;strokeWidth=0.8;rounded=1;arcSize=12;edgeStyle=orthogonalEdgeStyle;startArrow=none;endArrow=block;endFill=1;exitX=1.009;exitY=0.5;exitPerimeter=0;entryX=0.016;entryY=0.5;entryPerimeter=0;" parent="1" source="__zBR7lWoKVZhfvjV7_m-38" target="__zBR7lWoKVZhfvjV7_m-41" edge="1">
            <mxGeometry width="100" height="100" relative="1" as="geometry">
              <Array as="points" />
            </mxGeometry>
          </mxCell>
        </UserObject>
        <UserObject label="CPF Cadastrado?" lucidchartObjectId="~WShW39j7FCL" id="__zBR7lWoKVZhfvjV7_m-41">
          <mxCell style="html=1;overflow=block;blockSpacing=1;whiteSpace=wrap;rhombus;fontSize=16.7;fontColor=#3a414a;spacing=3.8;strokeColor=#3a414a;strokeOpacity=100;rounded=1;absoluteArcSize=1;arcSize=9;strokeWidth=0.8;" parent="1" vertex="1">
            <mxGeometry x="540" y="225" width="120" height="90" as="geometry" />
          </mxCell>
        </UserObject>
        <UserObject label="" lucidchartObjectId="mXShOgOT9Y45" id="__zBR7lWoKVZhfvjV7_m-42">
          <mxCell style="html=1;jettySize=18;whiteSpace=wrap;fontSize=13.3;fontColor=#333333;fontStyle=1;strokeColor=#3a414a;strokeOpacity=100;strokeWidth=0.8;rounded=1;arcSize=12;edgeStyle=orthogonalEdgeStyle;startArrow=none;endArrow=block;endFill=1;exitX=0.984;exitY=0.5;exitPerimeter=0;entryX=0.016;entryY=0.5;entryPerimeter=0;" parent="1" source="__zBR7lWoKVZhfvjV7_m-41" target="__zBR7lWoKVZhfvjV7_m-3" edge="1">
            <mxGeometry width="100" height="100" relative="1" as="geometry">
              <Array as="points" />
            </mxGeometry>
          </mxCell>
        </UserObject>
        <mxCell id="__zBR7lWoKVZhfvjV7_m-43" value="Yes" style="text;html=1;resizable=0;labelBackgroundColor=default;align=center;verticalAlign=middle;fontStyle=1;fontColor=#333333;fontSize=13.3;" parent="__zBR7lWoKVZhfvjV7_m-42" vertex="1">
          <mxGeometry relative="1" as="geometry" />
        </mxCell>
        <UserObject label="" lucidchartObjectId="t0Sh2_dwL1YY" id="__zBR7lWoKVZhfvjV7_m-44">
          <mxCell style="html=1;jettySize=18;whiteSpace=wrap;fontSize=13.3;fontColor=#333333;fontStyle=1;strokeColor=#3a414a;strokeOpacity=100;strokeWidth=0.8;rounded=1;arcSize=12;edgeStyle=orthogonalEdgeStyle;startArrow=none;endArrow=block;endFill=1;exitX=0.5;exitY=0.988;exitPerimeter=0;entryX=0;entryY=0.5;entryDx=0;entryDy=0;" parent="1" source="__zBR7lWoKVZhfvjV7_m-41" target="__zBR7lWoKVZhfvjV7_m-34" edge="1">
            <mxGeometry width="100" height="100" relative="1" as="geometry">
              <Array as="points">
                <mxPoint x="600" y="435" />
              </Array>
              <mxPoint x="600" y="354.712" as="targetPoint" />
            </mxGeometry>
          </mxCell>
        </UserObject>
        <mxCell id="__zBR7lWoKVZhfvjV7_m-45" value="No" style="text;html=1;resizable=0;labelBackgroundColor=default;align=center;verticalAlign=middle;fontStyle=1;fontColor=#333333;fontSize=13.3;" parent="__zBR7lWoKVZhfvjV7_m-44" vertex="1">
          <mxGeometry relative="1" as="geometry" />
        </mxCell>
        <UserObject label="" lucidchartObjectId="t1ShftQfOT~e" id="__zBR7lWoKVZhfvjV7_m-47">
          <mxCell style="html=1;jettySize=18;whiteSpace=wrap;fontSize=13;strokeColor=#3a414a;strokeOpacity=100;strokeWidth=0.8;rounded=1;arcSize=12;edgeStyle=orthogonalEdgeStyle;startArrow=none;endArrow=block;endFill=1;exitX=0.5;exitY=0.988;exitPerimeter=0;entryX=-0.009;entryY=0.5;entryPerimeter=0;" parent="1" source="__zBR7lWoKVZhfvjV7_m-3" target="__zBR7lWoKVZhfvjV7_m-37" edge="1">
            <mxGeometry width="100" height="100" relative="1" as="geometry">
              <Array as="points">
                <mxPoint x="795" y="353" />
                <mxPoint x="698" y="353" />
                <mxPoint x="698" y="600" />
              </Array>
            </mxGeometry>
          </mxCell>
        </UserObject>
        <UserObject label="" lucidchartObjectId="-1ShYIa4npn7" id="__zBR7lWoKVZhfvjV7_m-48">
          <mxCell style="html=1;jettySize=18;whiteSpace=wrap;fontSize=13;strokeColor=#3a414a;strokeOpacity=100;strokeWidth=0.8;rounded=1;arcSize=12;edgeStyle=orthogonalEdgeStyle;startArrow=none;endArrow=block;endFill=1;exitX=1.009;exitY=0.5;exitPerimeter=0;entryX=-0.009;entryY=0.5;entryPerimeter=0;" parent="1" source="__zBR7lWoKVZhfvjV7_m-36" target="__zBR7lWoKVZhfvjV7_m-49" edge="1">
            <mxGeometry width="100" height="100" relative="1" as="geometry">
              <Array as="points" />
            </mxGeometry>
          </mxCell>
        </UserObject>
        <UserObject label="Redirecionar para dashboard" lucidchartObjectId="_1ShSQ.JrckN" id="__zBR7lWoKVZhfvjV7_m-49">
          <mxCell style="html=1;overflow=block;blockSpacing=1;whiteSpace=wrap;fontSize=16.7;spacing=9;strokeColor=#d79b00;strokeOpacity=100;fillOpacity=100;rounded=1;absoluteArcSize=1;arcSize=9;fillColor=#ffe6cc;strokeWidth=2.3;" parent="1" vertex="1">
            <mxGeometry x="1125" y="390" width="120" height="90" as="geometry" />
          </mxCell>
        </UserObject>
        <UserObject label="Enviar Email" lucidchartObjectId="f4ShECsS2sqE" id="__zBR7lWoKVZhfvjV7_m-50">
          <mxCell style="html=1;overflow=block;blockSpacing=1;whiteSpace=wrap;fontSize=16.7;fontColor=#3a414a;spacing=9;strokeColor=#5e5e5e;strokeOpacity=100;rounded=1;absoluteArcSize=1;arcSize=9;strokeWidth=2.3;" parent="1" vertex="1">
            <mxGeometry x="930" y="555" width="120" height="90" as="geometry" />
          </mxCell>
        </UserObject>
        <UserObject label="" lucidchartObjectId="m4Shm_f2Mq~7" id="__zBR7lWoKVZhfvjV7_m-51">
          <mxCell style="html=1;jettySize=18;whiteSpace=wrap;fontSize=13;strokeColor=#3a414a;strokeOpacity=100;strokeWidth=0.8;rounded=1;arcSize=12;edgeStyle=orthogonalEdgeStyle;startArrow=none;endArrow=block;endFill=1;exitX=1.009;exitY=0.5;exitPerimeter=0;entryX=-0.009;entryY=0.5;entryPerimeter=0;" parent="1" source="__zBR7lWoKVZhfvjV7_m-37" target="__zBR7lWoKVZhfvjV7_m-50" edge="1">
            <mxGeometry width="100" height="100" relative="1" as="geometry">
              <Array as="points" />
            </mxGeometry>
          </mxCell>
        </UserObject>
        <UserObject label="[botão] Criar Senhas" lucidchartObjectId="v4Sh7iHNDRSB" id="__zBR7lWoKVZhfvjV7_m-52">
          <mxCell style="html=1;overflow=block;blockSpacing=1;whiteSpace=wrap;shape=process;fontSize=16.7;fontColor=#3a414a;spacing=3.8;strokeColor=#3a414a;strokeOpacity=100;rounded=1;absoluteArcSize=1;arcSize=9;strokeWidth=0.8;" parent="1" vertex="1">
            <mxGeometry x="1125" y="555" width="120" height="90" as="geometry" />
          </mxCell>
        </UserObject>
        <UserObject label="" lucidchartObjectId="C4ShOQhTbFZX" id="__zBR7lWoKVZhfvjV7_m-53">
          <mxCell style="html=1;jettySize=18;whiteSpace=wrap;fontSize=13;strokeColor=#3a414a;strokeOpacity=100;strokeWidth=0.8;rounded=1;arcSize=12;edgeStyle=orthogonalEdgeStyle;startArrow=none;endArrow=block;endFill=1;exitX=1.009;exitY=0.5;exitPerimeter=0;entryX=-0.003;entryY=0.5;entryPerimeter=0;" parent="1" source="__zBR7lWoKVZhfvjV7_m-50" target="__zBR7lWoKVZhfvjV7_m-52" edge="1">
            <mxGeometry width="100" height="100" relative="1" as="geometry">
              <Array as="points" />
            </mxGeometry>
          </mxCell>
        </UserObject>
        <UserObject label="Inserir Senha de Acesso" lucidchartObjectId=".4Sh2JL6naUp" id="__zBR7lWoKVZhfvjV7_m-54">
          <mxCell style="html=1;overflow=block;blockSpacing=1;whiteSpace=wrap;fontSize=16.7;fontColor=#3a414a;spacing=9;strokeColor=#5e5e5e;strokeOpacity=100;rounded=1;absoluteArcSize=1;arcSize=9;strokeWidth=2.3;" parent="1" vertex="1">
            <mxGeometry x="1320" y="555" width="120" height="90" as="geometry" />
          </mxCell>
        </UserObject>
        <UserObject label="" lucidchartObjectId="f5Shue_RHX2b" id="__zBR7lWoKVZhfvjV7_m-55">
          <mxCell style="html=1;jettySize=18;whiteSpace=wrap;fontSize=13;strokeColor=#3a414a;strokeOpacity=100;strokeWidth=0.8;rounded=1;arcSize=12;edgeStyle=orthogonalEdgeStyle;startArrow=none;endArrow=block;endFill=1;exitX=1.003;exitY=0.5;exitPerimeter=0;entryX=-0.009;entryY=0.5;entryPerimeter=0;" parent="1" source="__zBR7lWoKVZhfvjV7_m-52" target="__zBR7lWoKVZhfvjV7_m-54" edge="1">
            <mxGeometry width="100" height="100" relative="1" as="geometry">
              <Array as="points" />
            </mxGeometry>
          </mxCell>
        </UserObject>
        <UserObject label="" lucidchartObjectId="h6ShSDotpzw3" id="__zBR7lWoKVZhfvjV7_m-56">
          <mxCell style="html=1;jettySize=18;whiteSpace=wrap;fontSize=13;strokeColor=#3a414a;strokeOpacity=100;strokeWidth=0.8;rounded=1;arcSize=12;edgeStyle=orthogonalEdgeStyle;startArrow=none;endArrow=block;endFill=1;exitX=1.009;exitY=0.5;exitPerimeter=0;entryX=-0.009;entryY=0.5;entryPerimeter=0;" parent="1" source="__zBR7lWoKVZhfvjV7_m-54" target="__zBR7lWoKVZhfvjV7_m-57" edge="1">
            <mxGeometry width="100" height="100" relative="1" as="geometry">
              <Array as="points" />
            </mxGeometry>
          </mxCell>
        </UserObject>
        <UserObject label="[botão] Concluir" lucidchartObjectId="o6Sh~.s~Tl_P" id="__zBR7lWoKVZhfvjV7_m-57">
          <mxCell style="html=1;overflow=block;blockSpacing=1;whiteSpace=wrap;fontSize=16.7;fontColor=#3a414a;spacing=9;strokeColor=#5e5e5e;strokeOpacity=100;rounded=1;absoluteArcSize=1;arcSize=9;strokeWidth=2.3;" parent="1" vertex="1">
            <mxGeometry x="1515" y="555" width="120" height="90" as="geometry" />
          </mxCell>
        </UserObject>
        <UserObject label="" lucidchartObjectId="26ShiVNjJkJu" id="__zBR7lWoKVZhfvjV7_m-58">
          <mxCell style="html=1;jettySize=18;whiteSpace=wrap;fontSize=13;strokeColor=#3a414a;strokeOpacity=100;strokeWidth=0.8;rounded=1;arcSize=12;edgeStyle=orthogonalEdgeStyle;startArrow=none;endArrow=block;endFill=1;exitX=1.009;exitY=0.5;exitPerimeter=0;entryX=-0.009;entryY=0.5;entryPerimeter=0;" parent="1" source="__zBR7lWoKVZhfvjV7_m-57" target="__zBR7lWoKVZhfvjV7_m-59" edge="1">
            <mxGeometry width="100" height="100" relative="1" as="geometry">
              <Array as="points" />
            </mxGeometry>
          </mxCell>
        </UserObject>
        <UserObject label="[botão] Ir para Login" lucidchartObjectId="56Sh01gq5GD-" id="__zBR7lWoKVZhfvjV7_m-59">
          <mxCell style="html=1;overflow=block;blockSpacing=1;whiteSpace=wrap;fontSize=16.7;fontColor=#3a414a;spacing=9;strokeColor=#5e5e5e;strokeOpacity=100;rounded=1;absoluteArcSize=1;arcSize=9;strokeWidth=2.3;" parent="1" vertex="1">
            <mxGeometry x="1710" y="555" width="120" height="90" as="geometry" />
          </mxCell>
        </UserObject>
        <UserObject label="" lucidchartObjectId="I8ShuC3TyBja" id="__zBR7lWoKVZhfvjV7_m-60">
          <mxCell style="html=1;jettySize=18;whiteSpace=wrap;fontSize=13;strokeColor=#3a414a;strokeOpacity=100;strokeWidth=0.8;rounded=1;arcSize=12;edgeStyle=orthogonalEdgeStyle;startArrow=none;endArrow=block;endFill=1;exitX=1.009;exitY=0.5;exitPerimeter=0;entryX=-0.009;entryY=0.5;entryPerimeter=0;" parent="1" source="__zBR7lWoKVZhfvjV7_m-59" target="__zBR7lWoKVZhfvjV7_m-2" edge="1">
            <mxGeometry width="100" height="100" relative="1" as="geometry">
              <Array as="points">
                <mxPoint x="1861" y="600" />
                <mxPoint x="1861" y="675" />
                <mxPoint x="119" y="675" />
                <mxPoint x="119" y="270" />
              </Array>
            </mxGeometry>
          </mxCell>
        </UserObject>
        <mxCell id="__zBR7lWoKVZhfvjV7_m-83" value="Yes" style="edgeStyle=orthogonalEdgeStyle;rounded=0;orthogonalLoop=1;jettySize=auto;html=1;exitX=1;exitY=0.5;exitDx=0;exitDy=0;strokeWidth=1;fontStyle=1;fontSize=13;entryX=0;entryY=0.5;entryDx=0;entryDy=0;" parent="1" source="__zBR7lWoKVZhfvjV7_m-63" target="__zBR7lWoKVZhfvjV7_m-203" edge="1">
          <mxGeometry relative="1" as="geometry" />
        </mxCell>
        <UserObject label="isFirstAccess?" lucidchartObjectId="oaThQ4QMQbFh" id="__zBR7lWoKVZhfvjV7_m-63">
          <mxCell style="html=1;overflow=block;blockSpacing=1;whiteSpace=wrap;rhombus;fontSize=16.7;fontColor=#3a414a;spacing=3.8;strokeColor=#3a414a;strokeOpacity=100;rounded=1;absoluteArcSize=1;arcSize=9;strokeWidth=0.8;" parent="1" vertex="1">
            <mxGeometry x="597" y="974" width="120" height="90" as="geometry" />
          </mxCell>
        </UserObject>
        <mxCell id="__zBR7lWoKVZhfvjV7_m-88" style="edgeStyle=orthogonalEdgeStyle;rounded=0;orthogonalLoop=1;jettySize=auto;html=1;exitX=1;exitY=0.5;exitDx=0;exitDy=0;entryX=0;entryY=0.5;entryDx=0;entryDy=0;fontSize=13;strokeWidth=2;strokeColor=#6c8ebf;dashed=1;fillColor=#dae8fc;" parent="1" source="__zBR7lWoKVZhfvjV7_m-66" target="__zBR7lWoKVZhfvjV7_m-87" edge="1">
          <mxGeometry relative="1" as="geometry" />
        </mxCell>
        <UserObject label="return &#xa;&#xa;{ data { email } }" lucidchartObjectId="KaThPG2JTeoC" id="__zBR7lWoKVZhfvjV7_m-66">
          <mxCell style="html=1;overflow=block;blockSpacing=1;whiteSpace=wrap;fontSize=16.7;fontColor=default;align=center;spacing=9;strokeColor=#d79b00;strokeOpacity=100;rounded=1;absoluteArcSize=1;arcSize=9;strokeWidth=0.8;fillColor=#ffe6cc;" parent="1" vertex="1">
            <mxGeometry x="1665" y="1394" width="165" height="90" as="geometry" />
          </mxCell>
        </UserObject>
        <UserObject label="" lucidchartObjectId="YcThyY7UAlBf" id="__zBR7lWoKVZhfvjV7_m-67">
          <mxCell style="html=1;jettySize=18;whiteSpace=wrap;fontSize=13.3;fontColor=#333333;fontStyle=1;strokeColor=#3a414a;strokeOpacity=100;strokeWidth=0.8;rounded=1;arcSize=12;edgeStyle=orthogonalEdgeStyle;startArrow=none;endArrow=block;endFill=1;exitX=0.5;exitY=0.988;exitPerimeter=0;entryX=0.5;entryY=0;entryPerimeter=0;entryDx=0;entryDy=0;" parent="1" source="__zBR7lWoKVZhfvjV7_m-63" target="__zBR7lWoKVZhfvjV7_m-70" edge="1">
            <mxGeometry width="100" height="100" relative="1" as="geometry">
              <Array as="points" />
              <mxPoint x="657" y="1137.9199999999996" as="targetPoint" />
            </mxGeometry>
          </mxCell>
        </UserObject>
        <mxCell id="__zBR7lWoKVZhfvjV7_m-68" value="No" style="text;html=1;resizable=0;labelBackgroundColor=default;align=center;verticalAlign=middle;fontStyle=1;fontColor=#333333;fontSize=13.3;" parent="__zBR7lWoKVZhfvjV7_m-67" vertex="1">
          <mxGeometry relative="1" as="geometry" />
        </mxCell>
        <UserObject label="return&lt;br&gt;&lt;br&gt;&lt;b&gt;&lt;font color=&quot;#ff0080&quot;&gt;false&lt;/font&gt;&lt;/b&gt;" lucidchartObjectId="9_ShsK29GTZY" id="__zBR7lWoKVZhfvjV7_m-70">
          <mxCell style="html=1;overflow=block;blockSpacing=1;whiteSpace=wrap;fontSize=16.7;spacing=9;strokeColor=#d79b00;strokeOpacity=100;rounded=1;absoluteArcSize=1;arcSize=9;strokeWidth=0.8;fillColor=#ffe6cc;" parent="1" vertex="1">
            <mxGeometry x="597" y="1140" width="120" height="90" as="geometry" />
          </mxCell>
        </UserObject>
        <mxCell id="__zBR7lWoKVZhfvjV7_m-72" style="edgeStyle=orthogonalEdgeStyle;rounded=0;orthogonalLoop=1;jettySize=auto;html=1;exitX=1;exitY=0.5;exitDx=0;exitDy=0;" parent="1" source="__zBR7lWoKVZhfvjV7_m-71" target="__zBR7lWoKVZhfvjV7_m-73" edge="1">
          <mxGeometry relative="1" as="geometry">
            <mxPoint x="360" y="1019" as="targetPoint" />
          </mxGeometry>
        </mxCell>
        <UserObject label="&lt;b&gt;[POST] /ib/login/hasDocument&lt;/b&gt;&lt;br&gt;&lt;br&gt;{ document: cpf }" lucidchartObjectId="9_ShsK29GTZY" id="__zBR7lWoKVZhfvjV7_m-71">
          <mxCell style="html=1;overflow=block;blockSpacing=1;whiteSpace=wrap;fontSize=16.7;spacing=9;strokeColor=#6c8ebf;strokeOpacity=100;rounded=1;absoluteArcSize=1;arcSize=9;strokeWidth=0.8;fillColor=#dae8fc;" parent="1" vertex="1">
            <mxGeometry x="57" y="950" width="198" height="138" as="geometry" />
          </mxCell>
        </UserObject>
        <mxCell id="__zBR7lWoKVZhfvjV7_m-74" style="edgeStyle=orthogonalEdgeStyle;rounded=0;orthogonalLoop=1;jettySize=auto;html=1;exitX=1;exitY=0.5;exitDx=0;exitDy=0;" parent="1" source="__zBR7lWoKVZhfvjV7_m-73" target="__zBR7lWoKVZhfvjV7_m-63" edge="1">
          <mxGeometry relative="1" as="geometry">
            <mxPoint x="585" y="1019" as="targetPoint" />
          </mxGeometry>
        </mxCell>
        <mxCell id="__zBR7lWoKVZhfvjV7_m-77" style="edgeStyle=orthogonalEdgeStyle;rounded=0;orthogonalLoop=1;jettySize=auto;html=1;exitX=0.5;exitY=1;exitDx=0;exitDy=0;entryX=1;entryY=0.5;entryDx=0;entryDy=0;" parent="1" source="__zBR7lWoKVZhfvjV7_m-73" target="__zBR7lWoKVZhfvjV7_m-162" edge="1">
          <mxGeometry relative="1" as="geometry">
            <mxPoint x="430" y="1150" as="targetPoint" />
          </mxGeometry>
        </mxCell>
        <UserObject label="hasDocument?" lucidchartObjectId="oaThQ4QMQbFh" id="__zBR7lWoKVZhfvjV7_m-73">
          <mxCell style="html=1;overflow=block;blockSpacing=1;whiteSpace=wrap;rhombus;fontSize=16.7;fontColor=#3a414a;spacing=3.8;strokeColor=#3a414a;strokeOpacity=100;rounded=1;absoluteArcSize=1;arcSize=9;strokeWidth=0.8;" parent="1" vertex="1">
            <mxGeometry x="370" y="974" width="120" height="90" as="geometry" />
          </mxCell>
        </UserObject>
        <mxCell id="__zBR7lWoKVZhfvjV7_m-81" style="edgeStyle=orthogonalEdgeStyle;rounded=0;orthogonalLoop=1;jettySize=auto;html=1;exitX=1;exitY=0.5;exitDx=0;exitDy=0;strokeWidth=1;" parent="1" source="__zBR7lWoKVZhfvjV7_m-79" target="__zBR7lWoKVZhfvjV7_m-66" edge="1">
          <mxGeometry relative="1" as="geometry" />
        </mxCell>
        <UserObject label="&lt;b&gt;sendEmailCreateAccessPassword()&lt;br&gt;&lt;/b&gt;&lt;ul style=&quot;margin: 12px 0px 0px; padding: 0px 0px 0px 24px; box-sizing: border-box; display: flow-root; color: rgb(23, 43, 77); font-family: -apple-system, BlinkMacSystemFont, &amp;quot;Segoe UI&amp;quot;, Roboto, Oxygen, Ubuntu, &amp;quot;Fira Sans&amp;quot;, &amp;quot;Droid Sans&amp;quot;, &amp;quot;Helvetica Neue&amp;quot;, sans-serif; font-size: 14px; text-align: start;&quot; data-indent-level=&quot;1&quot; class=&quot;ak-ul&quot;&gt;&lt;li style=&quot;&quot;&gt;&lt;p style=&quot;margin: 0px; padding: 0px; font-size: 1em; line-height: 1.714; letter-spacing: -0.005em;&quot; data-renderer-start-pos=&quot;76&quot;&gt;&lt;span style=&quot;background-color: rgb(235, 236, 240);&quot;&gt;Deve limitar o envio de e-mails em x tempo (ip + cpf) para evitar flood* &lt;/span&gt;&lt;/p&gt;&lt;/li&gt;&lt;li style=&quot;margin-top: 4px;&quot;&gt;&lt;p style=&quot;margin: 0px; padding: 0px; font-size: 1em; line-height: 1.714; letter-spacing: -0.005em;&quot; data-renderer-start-pos=&quot;153&quot;&gt;&lt;span style=&quot;background-color: rgb(235, 236, 240);&quot;&gt;Deve gerar com um link com token (1 dia de validade) para validação. &lt;/span&gt;&lt;/p&gt;&lt;/li&gt;&lt;/ul&gt;" lucidchartObjectId="XUSho0rWNq1M" id="__zBR7lWoKVZhfvjV7_m-79">
          <mxCell style="html=1;overflow=block;blockSpacing=1;whiteSpace=wrap;fontSize=16.7;fontColor=#3a414a;spacing=9;strokeColor=#5e5e5e;strokeOpacity=100;rounded=1;absoluteArcSize=1;arcSize=9;strokeWidth=2.3;" parent="1" vertex="1">
            <mxGeometry x="1285" y="1353" width="300" height="172" as="geometry" />
          </mxCell>
        </UserObject>
        <mxCell id="__zBR7lWoKVZhfvjV7_m-84" value="No" style="edgeStyle=orthogonalEdgeStyle;rounded=0;orthogonalLoop=1;jettySize=auto;html=1;exitX=0.5;exitY=1;exitDx=0;exitDy=0;strokeWidth=1;fontStyle=1;fontSize=13;" parent="1" source="__zBR7lWoKVZhfvjV7_m-82" target="__zBR7lWoKVZhfvjV7_m-79" edge="1">
          <mxGeometry relative="1" as="geometry" />
        </mxCell>
        <mxCell id="__zBR7lWoKVZhfvjV7_m-85" value="Yes" style="edgeStyle=orthogonalEdgeStyle;rounded=0;orthogonalLoop=1;jettySize=auto;html=1;exitX=1;exitY=0.5;exitDx=0;exitDy=0;fontSize=13;strokeWidth=1;fontStyle=1" parent="1" source="__zBR7lWoKVZhfvjV7_m-82" target="__zBR7lWoKVZhfvjV7_m-86" edge="1">
          <mxGeometry relative="1" as="geometry">
            <mxPoint x="1615" y="1018.7142857142858" as="targetPoint" />
          </mxGeometry>
        </mxCell>
        <UserObject label="hasAccessPassword?" lucidchartObjectId="oaThQ4QMQbFh" id="__zBR7lWoKVZhfvjV7_m-82">
          <mxCell style="html=1;overflow=block;blockSpacing=1;whiteSpace=wrap;rhombus;fontSize=16.7;fontColor=#3a414a;spacing=3.8;strokeColor=#3a414a;strokeOpacity=100;rounded=1;absoluteArcSize=1;arcSize=9;strokeWidth=0.8;" parent="1" vertex="1">
            <mxGeometry x="1325" y="974" width="220" height="90" as="geometry" />
          </mxCell>
        </UserObject>
        <UserObject label="return&lt;br&gt;&lt;br&gt;&lt;b style=&quot;&quot;&gt;&lt;font color=&quot;#3333ff&quot;&gt;true&lt;/font&gt;&lt;/b&gt;" lucidchartObjectId="9_ShsK29GTZY" id="__zBR7lWoKVZhfvjV7_m-86">
          <mxCell style="html=1;overflow=block;blockSpacing=1;whiteSpace=wrap;fontSize=16.7;spacing=9;strokeColor=#d79b00;strokeOpacity=100;rounded=1;absoluteArcSize=1;arcSize=9;strokeWidth=0.8;fillColor=#ffe6cc;" parent="1" vertex="1">
            <mxGeometry x="1665" y="974" width="120" height="90" as="geometry" />
          </mxCell>
        </UserObject>
        <mxCell id="__zBR7lWoKVZhfvjV7_m-89" style="edgeStyle=orthogonalEdgeStyle;rounded=0;orthogonalLoop=1;jettySize=auto;html=1;exitX=1;exitY=0.5;exitDx=0;exitDy=0;fontSize=13;strokeWidth=1;entryX=0;entryY=0.5;entryDx=0;entryDy=0;" parent="1" source="__zBR7lWoKVZhfvjV7_m-87" target="__zBR7lWoKVZhfvjV7_m-90" edge="1">
          <mxGeometry relative="1" as="geometry">
            <mxPoint x="2335" y="1438.666666666667" as="targetPoint" />
          </mxGeometry>
        </mxCell>
        <UserObject label="&lt;b&gt;[POST] /ib/login/createAccessPassword&lt;/b&gt;&lt;br&gt;&lt;br&gt;{ access_password, access_password_confirm }" lucidchartObjectId="9_ShsK29GTZY" id="__zBR7lWoKVZhfvjV7_m-87">
          <mxCell style="html=1;overflow=block;blockSpacing=1;whiteSpace=wrap;fontSize=16.7;spacing=9;strokeColor=#6c8ebf;strokeOpacity=100;rounded=1;absoluteArcSize=1;arcSize=9;strokeWidth=0.8;fillColor=#dae8fc;" parent="1" vertex="1">
            <mxGeometry x="1925" y="1370" width="310" height="138" as="geometry" />
          </mxCell>
        </UserObject>
        <mxCell id="__zBR7lWoKVZhfvjV7_m-92" value="No" style="edgeStyle=orthogonalEdgeStyle;rounded=0;orthogonalLoop=1;jettySize=auto;html=1;exitX=0.5;exitY=1;exitDx=0;exitDy=0;fontSize=13;strokeWidth=1;" parent="1" source="__zBR7lWoKVZhfvjV7_m-90" target="__zBR7lWoKVZhfvjV7_m-102" edge="1">
          <mxGeometry x="-0.025" relative="1" as="geometry">
            <mxPoint x="2447.5" y="1564" as="targetPoint" />
            <mxPoint as="offset" />
          </mxGeometry>
        </mxCell>
        <mxCell id="__zBR7lWoKVZhfvjV7_m-93" value="Yes" style="edgeStyle=orthogonalEdgeStyle;rounded=0;orthogonalLoop=1;jettySize=auto;html=1;exitX=1;exitY=0.5;exitDx=0;exitDy=0;fontSize=13;strokeWidth=1;" parent="1" source="__zBR7lWoKVZhfvjV7_m-90" target="__zBR7lWoKVZhfvjV7_m-94" edge="1">
          <mxGeometry relative="1" as="geometry">
            <mxPoint x="2645" y="1438.666666666667" as="targetPoint" />
          </mxGeometry>
        </mxCell>
        <UserObject label="tokenMatch?" lucidchartObjectId="oaThQ4QMQbFh" id="__zBR7lWoKVZhfvjV7_m-90">
          <mxCell style="html=1;overflow=block;blockSpacing=1;whiteSpace=wrap;rhombus;fontSize=16.7;fontColor=#3a414a;spacing=3.8;strokeColor=#3a414a;strokeOpacity=100;rounded=1;absoluteArcSize=1;arcSize=9;strokeWidth=0.8;" parent="1" vertex="1">
            <mxGeometry x="2360" y="1394" width="175" height="90" as="geometry" />
          </mxCell>
        </UserObject>
        <UserObject label="return&lt;br&gt;&lt;br&gt;&lt;b&gt;&lt;font color=&quot;#ff0080&quot;&gt;false&lt;/font&gt;&lt;/b&gt;" lucidchartObjectId="9_ShsK29GTZY" id="__zBR7lWoKVZhfvjV7_m-91">
          <mxCell style="html=1;overflow=block;blockSpacing=1;whiteSpace=wrap;fontSize=16.7;spacing=9;strokeColor=#d79b00;strokeOpacity=100;rounded=1;absoluteArcSize=1;arcSize=9;strokeWidth=0.8;fillColor=#ffe6cc;" parent="1" vertex="1">
            <mxGeometry x="2657.5" y="1564" width="120" height="90" as="geometry" />
          </mxCell>
        </UserObject>
        <mxCell id="__zBR7lWoKVZhfvjV7_m-96" value="No" style="edgeStyle=orthogonalEdgeStyle;rounded=0;orthogonalLoop=1;jettySize=auto;html=1;exitX=0.5;exitY=1;exitDx=0;exitDy=0;entryX=0.5;entryY=0;entryDx=0;entryDy=0;fontSize=13;strokeWidth=1;" parent="1" source="__zBR7lWoKVZhfvjV7_m-94" edge="1">
          <mxGeometry relative="1" as="geometry">
            <mxPoint x="2702.5" y="1564" as="targetPoint" />
          </mxGeometry>
        </mxCell>
        <mxCell id="__zBR7lWoKVZhfvjV7_m-97" value="Yes" style="edgeStyle=orthogonalEdgeStyle;rounded=0;orthogonalLoop=1;jettySize=auto;html=1;exitX=1;exitY=0.5;exitDx=0;exitDy=0;fontSize=13;strokeWidth=1;entryX=0;entryY=0.5;entryDx=0;entryDy=0;" parent="1" source="__zBR7lWoKVZhfvjV7_m-94" target="__zBR7lWoKVZhfvjV7_m-98" edge="1">
          <mxGeometry relative="1" as="geometry">
            <mxPoint x="2875" y="1438.666666666667" as="targetPoint" />
          </mxGeometry>
        </mxCell>
        <UserObject label="passwordMatch?" lucidchartObjectId="oaThQ4QMQbFh" id="__zBR7lWoKVZhfvjV7_m-94">
          <mxCell style="html=1;overflow=block;blockSpacing=1;whiteSpace=wrap;rhombus;fontSize=16.7;fontColor=#3a414a;spacing=3.8;strokeColor=#3a414a;strokeOpacity=100;rounded=1;absoluteArcSize=1;arcSize=9;strokeWidth=0.8;" parent="1" vertex="1">
            <mxGeometry x="2615" y="1394" width="175" height="90" as="geometry" />
          </mxCell>
        </UserObject>
        <UserObject label="return&lt;br&gt;&lt;br&gt;&lt;b&gt;&lt;font color=&quot;#ff0080&quot;&gt;false&lt;/font&gt;&lt;/b&gt;" lucidchartObjectId="9_ShsK29GTZY" id="__zBR7lWoKVZhfvjV7_m-95">
          <mxCell style="html=1;overflow=block;blockSpacing=1;whiteSpace=wrap;fontSize=16.7;spacing=9;strokeColor=#d79b00;strokeOpacity=100;rounded=1;absoluteArcSize=1;arcSize=9;strokeWidth=0.8;fillColor=#ffe6cc;" parent="1" vertex="1">
            <mxGeometry x="2912.5" y="1564" width="120" height="90" as="geometry" />
          </mxCell>
        </UserObject>
        <mxCell id="__zBR7lWoKVZhfvjV7_m-101" style="edgeStyle=orthogonalEdgeStyle;rounded=0;orthogonalLoop=1;jettySize=auto;html=1;exitX=0.5;exitY=1;exitDx=0;exitDy=0;fontSize=13;strokeWidth=1;entryX=1;entryY=0.5;entryDx=0;entryDy=0;" parent="1" source="__zBR7lWoKVZhfvjV7_m-98" edge="1">
          <mxGeometry relative="1" as="geometry">
            <mxPoint x="2960" y="1569" as="targetPoint" />
          </mxGeometry>
        </mxCell>
        <mxCell id="__zBR7lWoKVZhfvjV7_m-103" style="edgeStyle=orthogonalEdgeStyle;rounded=0;orthogonalLoop=1;jettySize=auto;html=1;exitX=1;exitY=0.5;exitDx=0;exitDy=0;fontSize=13;strokeWidth=1;entryX=0;entryY=0.5;entryDx=0;entryDy=0;" parent="1" source="__zBR7lWoKVZhfvjV7_m-98" target="__zBR7lWoKVZhfvjV7_m-104" edge="1">
          <mxGeometry relative="1" as="geometry">
            <mxPoint x="3125" y="1439.666666666667" as="targetPoint" />
          </mxGeometry>
        </mxCell>
        <UserObject label="createAccessPassword()" lucidchartObjectId="XUSho0rWNq1M" id="__zBR7lWoKVZhfvjV7_m-98">
          <mxCell style="html=1;overflow=block;blockSpacing=1;whiteSpace=wrap;fontSize=16.7;fontColor=#3a414a;spacing=9;strokeColor=#5e5e5e;strokeOpacity=100;rounded=1;absoluteArcSize=1;arcSize=9;strokeWidth=2.3;" parent="1" vertex="1">
            <mxGeometry x="2855" y="1394" width="210" height="90" as="geometry" />
          </mxCell>
        </UserObject>
        <mxCell id="__zBR7lWoKVZhfvjV7_m-100" style="edgeStyle=orthogonalEdgeStyle;rounded=0;orthogonalLoop=1;jettySize=auto;html=1;exitX=1;exitY=0.5;exitDx=0;exitDy=0;entryX=0;entryY=0.5;entryDx=0;entryDy=0;fontSize=13;strokeWidth=1;" parent="1" source="__zBR7lWoKVZhfvjV7_m-99" target="__zBR7lWoKVZhfvjV7_m-79" edge="1">
          <mxGeometry relative="1" as="geometry" />
        </mxCell>
        <UserObject label="&lt;b&gt;[POST] /ib/register/&lt;/b&gt;&lt;br&gt;&lt;br&gt;{ email }" lucidchartObjectId="9_ShsK29GTZY" id="__zBR7lWoKVZhfvjV7_m-99">
          <mxCell style="html=1;overflow=block;blockSpacing=1;whiteSpace=wrap;fontSize=16.7;spacing=9;strokeColor=#6c8ebf;strokeOpacity=100;rounded=1;absoluteArcSize=1;arcSize=9;strokeWidth=0.8;fillColor=#dae8fc;" parent="1" vertex="1">
            <mxGeometry x="63" y="1370" width="192" height="138" as="geometry" />
          </mxCell>
        </UserObject>
        <mxCell id="__zBR7lWoKVZhfvjV7_m-102" value="&lt;b&gt;throw Error&lt;/b&gt;" style="triangle;whiteSpace=wrap;html=1;rotation=-90;fillColor=#f8cecc;strokeColor=#b85450;fontSize=13;" parent="1" vertex="1">
          <mxGeometry x="2407.5" y="1548" width="80" height="106" as="geometry" />
        </mxCell>
        <UserObject label="return&lt;br&gt;&lt;br&gt;&lt;b style=&quot;&quot;&gt;&lt;font color=&quot;#3333ff&quot;&gt;true&lt;/font&gt;&lt;/b&gt;" lucidchartObjectId="9_ShsK29GTZY" id="__zBR7lWoKVZhfvjV7_m-104">
          <mxCell style="html=1;overflow=block;blockSpacing=1;whiteSpace=wrap;fontSize=16.7;spacing=9;strokeColor=#d79b00;strokeOpacity=100;rounded=1;absoluteArcSize=1;arcSize=9;strokeWidth=0.8;fillColor=#ffe6cc;" parent="1" vertex="1">
            <mxGeometry x="3115" y="1394" width="120" height="90" as="geometry" />
          </mxCell>
        </UserObject>
        <mxCell id="__zBR7lWoKVZhfvjV7_m-105" style="edgeStyle=orthogonalEdgeStyle;rounded=0;orthogonalLoop=1;jettySize=auto;html=1;exitX=1;exitY=0.5;exitDx=0;exitDy=0;fontSize=13;strokeWidth=2;dashed=1;fillColor=#dae8fc;strokeColor=#6c8ebf;" parent="1" source="__zBR7lWoKVZhfvjV7_m-86" target="__zBR7lWoKVZhfvjV7_m-107" edge="1">
          <mxGeometry relative="1" as="geometry">
            <mxPoint x="1895" y="1019.666666666667" as="targetPoint" />
          </mxGeometry>
        </mxCell>
        <mxCell id="__zBR7lWoKVZhfvjV7_m-117" style="edgeStyle=orthogonalEdgeStyle;rounded=0;orthogonalLoop=1;jettySize=auto;html=1;exitX=1;exitY=0.5;exitDx=0;exitDy=0;fontSize=13;strokeWidth=1;entryX=0;entryY=0.5;entryDx=0;entryDy=0;" parent="1" source="__zBR7lWoKVZhfvjV7_m-107" target="__zBR7lWoKVZhfvjV7_m-119" edge="1">
          <mxGeometry relative="1" as="geometry" />
        </mxCell>
        <UserObject label="&lt;b&gt;[POST] /ib/login/createTransationalPassword&lt;/b&gt;&lt;br&gt;&lt;br&gt;{ transational_password, transational_password_confirm }" lucidchartObjectId="9_ShsK29GTZY" id="__zBR7lWoKVZhfvjV7_m-107">
          <mxCell style="html=1;overflow=block;blockSpacing=1;whiteSpace=wrap;fontSize=16.7;spacing=9;strokeColor=#6c8ebf;strokeOpacity=100;rounded=1;absoluteArcSize=1;arcSize=9;strokeWidth=0.8;fillColor=#dae8fc;" parent="1" vertex="1">
            <mxGeometry x="1915" y="950" width="310" height="138" as="geometry" />
          </mxCell>
        </UserObject>
        <mxCell id="__zBR7lWoKVZhfvjV7_m-108" value="No" style="edgeStyle=orthogonalEdgeStyle;rounded=0;orthogonalLoop=1;jettySize=auto;html=1;exitX=0.5;exitY=1;exitDx=0;exitDy=0;entryX=0.5;entryY=0;entryDx=0;entryDy=0;fontSize=13;strokeWidth=1;" parent="1" source="__zBR7lWoKVZhfvjV7_m-110" target="__zBR7lWoKVZhfvjV7_m-111" edge="1">
          <mxGeometry relative="1" as="geometry" />
        </mxCell>
        <mxCell id="__zBR7lWoKVZhfvjV7_m-109" value="Yes" style="edgeStyle=orthogonalEdgeStyle;rounded=0;orthogonalLoop=1;jettySize=auto;html=1;exitX=1;exitY=0.5;exitDx=0;exitDy=0;fontSize=13;strokeWidth=1;entryX=0;entryY=0.5;entryDx=0;entryDy=0;" parent="1" source="__zBR7lWoKVZhfvjV7_m-110" target="__zBR7lWoKVZhfvjV7_m-114" edge="1">
          <mxGeometry relative="1" as="geometry">
            <mxPoint x="2875" y="1018.666666666667" as="targetPoint" />
          </mxGeometry>
        </mxCell>
        <UserObject label="passwordMatch?" lucidchartObjectId="oaThQ4QMQbFh" id="__zBR7lWoKVZhfvjV7_m-110">
          <mxCell style="html=1;overflow=block;blockSpacing=1;whiteSpace=wrap;rhombus;fontSize=16.7;fontColor=#3a414a;spacing=3.8;strokeColor=#3a414a;strokeOpacity=100;rounded=1;absoluteArcSize=1;arcSize=9;strokeWidth=0.8;" parent="1" vertex="1">
            <mxGeometry x="2615" y="974" width="175" height="90" as="geometry" />
          </mxCell>
        </UserObject>
        <UserObject label="return&lt;br&gt;&lt;br&gt;&lt;b&gt;&lt;font color=&quot;#ff0080&quot;&gt;false&lt;/font&gt;&lt;/b&gt;" lucidchartObjectId="9_ShsK29GTZY" id="__zBR7lWoKVZhfvjV7_m-111">
          <mxCell style="html=1;overflow=block;blockSpacing=1;whiteSpace=wrap;fontSize=16.7;spacing=9;strokeColor=#d79b00;strokeOpacity=100;rounded=1;absoluteArcSize=1;arcSize=9;strokeWidth=0.8;fillColor=#ffe6cc;" parent="1" vertex="1">
            <mxGeometry x="2642.5" y="1144" width="120" height="90" as="geometry" />
          </mxCell>
        </UserObject>
        <mxCell id="__zBR7lWoKVZhfvjV7_m-112" style="edgeStyle=orthogonalEdgeStyle;rounded=0;orthogonalLoop=1;jettySize=auto;html=1;exitX=0.5;exitY=1;exitDx=0;exitDy=0;fontSize=13;strokeWidth=1;entryX=1;entryY=0.5;entryDx=0;entryDy=0;" parent="1" source="__zBR7lWoKVZhfvjV7_m-114" target="__zBR7lWoKVZhfvjV7_m-115" edge="1">
          <mxGeometry relative="1" as="geometry">
            <mxPoint x="2960.333333333334" y="1160" as="targetPoint" />
          </mxGeometry>
        </mxCell>
        <mxCell id="__zBR7lWoKVZhfvjV7_m-113" style="edgeStyle=orthogonalEdgeStyle;rounded=0;orthogonalLoop=1;jettySize=auto;html=1;exitX=1;exitY=0.5;exitDx=0;exitDy=0;fontSize=13;strokeWidth=1;entryX=0;entryY=0.5;entryDx=0;entryDy=0;" parent="1" source="__zBR7lWoKVZhfvjV7_m-114" target="__zBR7lWoKVZhfvjV7_m-116" edge="1">
          <mxGeometry relative="1" as="geometry">
            <mxPoint x="3125" y="1019.666666666667" as="targetPoint" />
          </mxGeometry>
        </mxCell>
        <UserObject label="createTransationalPassword()" lucidchartObjectId="XUSho0rWNq1M" id="__zBR7lWoKVZhfvjV7_m-114">
          <mxCell style="html=1;overflow=block;blockSpacing=1;whiteSpace=wrap;fontSize=16.7;fontColor=#3a414a;spacing=9;strokeColor=#5e5e5e;strokeOpacity=100;rounded=1;absoluteArcSize=1;arcSize=9;strokeWidth=2.3;" parent="1" vertex="1">
            <mxGeometry x="2855" y="974" width="245" height="90" as="geometry" />
          </mxCell>
        </UserObject>
        <mxCell id="__zBR7lWoKVZhfvjV7_m-115" value="&lt;b&gt;throw Error&lt;/b&gt;" style="triangle;whiteSpace=wrap;html=1;rotation=-90;fillColor=#f8cecc;strokeColor=#b85450;fontSize=13;" parent="1" vertex="1">
          <mxGeometry x="2937.5" y="1134" width="80" height="106" as="geometry" />
        </mxCell>
        <UserObject label="return&lt;br&gt;&lt;br&gt;&lt;b style=&quot;&quot;&gt;&lt;font color=&quot;#3333ff&quot;&gt;true&lt;/font&gt;&lt;/b&gt;" lucidchartObjectId="9_ShsK29GTZY" id="__zBR7lWoKVZhfvjV7_m-116">
          <mxCell style="html=1;overflow=block;blockSpacing=1;whiteSpace=wrap;fontSize=16.7;spacing=9;strokeColor=#d79b00;strokeOpacity=100;rounded=1;absoluteArcSize=1;arcSize=9;strokeWidth=0.8;fillColor=#ffe6cc;" parent="1" vertex="1">
            <mxGeometry x="3155" y="974" width="120" height="90" as="geometry" />
          </mxCell>
        </UserObject>
        <mxCell id="__zBR7lWoKVZhfvjV7_m-118" value="No" style="edgeStyle=orthogonalEdgeStyle;rounded=0;orthogonalLoop=1;jettySize=auto;html=1;exitX=0.5;exitY=1;exitDx=0;exitDy=0;entryX=0.5;entryY=0;entryDx=0;entryDy=0;fontSize=13;strokeWidth=1;" parent="1" source="__zBR7lWoKVZhfvjV7_m-119" target="__zBR7lWoKVZhfvjV7_m-120" edge="1">
          <mxGeometry relative="1" as="geometry" />
        </mxCell>
        <mxCell id="__zBR7lWoKVZhfvjV7_m-121" style="edgeStyle=orthogonalEdgeStyle;rounded=0;orthogonalLoop=1;jettySize=auto;html=1;exitX=1;exitY=0.5;exitDx=0;exitDy=0;entryX=0;entryY=0.5;entryDx=0;entryDy=0;fontSize=13;strokeWidth=1;" parent="1" source="__zBR7lWoKVZhfvjV7_m-119" target="__zBR7lWoKVZhfvjV7_m-110" edge="1">
          <mxGeometry relative="1" as="geometry" />
        </mxCell>
        <UserObject label="tokenMatch?" lucidchartObjectId="oaThQ4QMQbFh" id="__zBR7lWoKVZhfvjV7_m-119">
          <mxCell style="html=1;overflow=block;blockSpacing=1;whiteSpace=wrap;rhombus;fontSize=16.7;fontColor=#3a414a;spacing=3.8;strokeColor=#3a414a;strokeOpacity=100;rounded=1;absoluteArcSize=1;arcSize=9;strokeWidth=0.8;" parent="1" vertex="1">
            <mxGeometry x="2355" y="974" width="175" height="90" as="geometry" />
          </mxCell>
        </UserObject>
        <UserObject label="return&lt;br&gt;&lt;br&gt;&lt;b&gt;&lt;font color=&quot;#ff0080&quot;&gt;false&lt;/font&gt;&lt;/b&gt;" lucidchartObjectId="9_ShsK29GTZY" id="__zBR7lWoKVZhfvjV7_m-120">
          <mxCell style="html=1;overflow=block;blockSpacing=1;whiteSpace=wrap;fontSize=16.7;spacing=9;strokeColor=#d79b00;strokeOpacity=100;rounded=1;absoluteArcSize=1;arcSize=9;strokeWidth=0.8;fillColor=#ffe6cc;" parent="1" vertex="1">
            <mxGeometry x="2382.5" y="1144" width="120" height="90" as="geometry" />
          </mxCell>
        </UserObject>
        <mxCell id="__zBR7lWoKVZhfvjV7_m-125" value="&lt;b&gt;&lt;font style=&quot;font-size: 27px;&quot;&gt;PRIMEIRO ACESSO&lt;/font&gt;&lt;/b&gt;" style="text;html=1;align=center;verticalAlign=middle;resizable=0;points=[];autosize=1;strokeColor=none;fillColor=none;fontSize=13;" parent="1" vertex="1">
          <mxGeometry x="6" y="874" width="264" height="25" as="geometry" />
        </mxCell>
        <mxCell id="__zBR7lWoKVZhfvjV7_m-158" style="edgeStyle=orthogonalEdgeStyle;rounded=0;orthogonalLoop=1;jettySize=auto;html=1;exitX=1;exitY=0.5;exitDx=0;exitDy=0;fontSize=18;strokeWidth=1;" parent="1" source="__zBR7lWoKVZhfvjV7_m-157" target="__zBR7lWoKVZhfvjV7_m-164" edge="1">
          <mxGeometry relative="1" as="geometry">
            <mxPoint x="628" y="2542.5" as="targetPoint" />
          </mxGeometry>
        </mxCell>
        <UserObject label="" lucidchartObjectId="b3ShS5xS8G2q" id="__zBR7lWoKVZhfvjV7_m-127">
          <mxCell style="html=1;overflow=block;blockSpacing=1;whiteSpace=wrap;fontSize=16.7;spacing=3.8;strokeColor=#82b366;strokeOpacity=100;fillOpacity=100;rounded=1;absoluteArcSize=1;arcSize=9;fillColor=#d5e8d4;strokeWidth=0.8;" parent="1" vertex="1">
            <mxGeometry x="-47" y="1828" width="3565" height="502" as="geometry" />
          </mxCell>
        </UserObject>
        <mxCell id="__zBR7lWoKVZhfvjV7_m-128" value="&lt;b&gt;&lt;font style=&quot;font-size: 27px;&quot;&gt;RECUPERAR SENHA&lt;/font&gt;&lt;/b&gt;" style="text;html=1;align=center;verticalAlign=middle;resizable=0;points=[];autosize=1;strokeColor=none;fillColor=none;fontSize=13;" parent="1" vertex="1">
          <mxGeometry x="-5" y="1887" width="283" height="25" as="geometry" />
        </mxCell>
        <mxCell id="__zBR7lWoKVZhfvjV7_m-133" style="edgeStyle=orthogonalEdgeStyle;rounded=0;orthogonalLoop=1;jettySize=auto;html=1;exitX=1;exitY=0.5;exitDx=0;exitDy=0;fontSize=27;strokeWidth=1;" parent="1" source="__zBR7lWoKVZhfvjV7_m-130" target="__zBR7lWoKVZhfvjV7_m-132" edge="1">
          <mxGeometry relative="1" as="geometry" />
        </mxCell>
        <UserObject label="&lt;b&gt;[POST] /ib/login/recoverPassword&lt;/b&gt;&lt;br&gt;&lt;br&gt;{ document }" lucidchartObjectId="9_ShsK29GTZY" id="__zBR7lWoKVZhfvjV7_m-130">
          <mxCell style="html=1;overflow=block;blockSpacing=1;whiteSpace=wrap;fontSize=16.7;spacing=9;strokeColor=#6c8ebf;strokeOpacity=100;rounded=1;absoluteArcSize=1;arcSize=9;strokeWidth=0.8;fillColor=#dae8fc;" parent="1" vertex="1">
            <mxGeometry x="26" y="1963" width="220" height="138" as="geometry" />
          </mxCell>
        </UserObject>
        <mxCell id="__zBR7lWoKVZhfvjV7_m-143" style="edgeStyle=orthogonalEdgeStyle;rounded=0;orthogonalLoop=1;jettySize=auto;html=1;exitX=1;exitY=0.5;exitDx=0;exitDy=0;fontSize=27;strokeWidth=2;fillColor=#dae8fc;strokeColor=#6c8ebf;dashed=1;" parent="1" source="__zBR7lWoKVZhfvjV7_m-131" target="__zBR7lWoKVZhfvjV7_m-135" edge="1">
          <mxGeometry relative="1" as="geometry" />
        </mxCell>
        <UserObject label="return &#xa;&#xa;{ data { email } }" lucidchartObjectId="KaThPG2JTeoC" id="__zBR7lWoKVZhfvjV7_m-131">
          <mxCell style="html=1;overflow=block;blockSpacing=1;whiteSpace=wrap;fontSize=16.7;fontColor=default;align=center;spacing=9;strokeColor=#d79b00;strokeOpacity=100;rounded=1;absoluteArcSize=1;arcSize=9;strokeWidth=0.8;fillColor=#ffe6cc;" parent="1" vertex="1">
            <mxGeometry x="720" y="1987" width="165" height="90" as="geometry" />
          </mxCell>
        </UserObject>
        <mxCell id="__zBR7lWoKVZhfvjV7_m-134" style="edgeStyle=orthogonalEdgeStyle;rounded=0;orthogonalLoop=1;jettySize=auto;html=1;exitX=1;exitY=0.5;exitDx=0;exitDy=0;fontSize=27;strokeWidth=1;" parent="1" source="__zBR7lWoKVZhfvjV7_m-132" target="__zBR7lWoKVZhfvjV7_m-131" edge="1">
          <mxGeometry relative="1" as="geometry" />
        </mxCell>
        <UserObject label="&lt;b&gt;sendEmailRecoverPassword()&lt;br&gt;&lt;/b&gt;&lt;ul style=&quot;margin: 12px 0px 0px; padding: 0px 0px 0px 24px; box-sizing: border-box; display: flow-root; color: rgb(23, 43, 77); font-family: -apple-system, BlinkMacSystemFont, &amp;quot;Segoe UI&amp;quot;, Roboto, Oxygen, Ubuntu, &amp;quot;Fira Sans&amp;quot;, &amp;quot;Droid Sans&amp;quot;, &amp;quot;Helvetica Neue&amp;quot;, sans-serif; font-size: 14px; text-align: start;&quot; data-indent-level=&quot;1&quot; class=&quot;ak-ul&quot;&gt;&lt;li style=&quot;&quot;&gt;&lt;p style=&quot;margin: 0px; padding: 0px; font-size: 1em; line-height: 1.714; letter-spacing: -0.005em;&quot; data-renderer-start-pos=&quot;74&quot;&gt;&lt;span style=&quot;background-color: rgb(235, 236, 240);&quot;&gt;Deve limitar o envio de e-mails em x tempo (ip + cpf) para evitar flood* &lt;/span&gt;&lt;/p&gt;&lt;/li&gt;&lt;li style=&quot;margin-top: 4px;&quot;&gt;&lt;p style=&quot;margin: 0px; padding: 0px; font-size: 1em; line-height: 1.714; letter-spacing: -0.005em;&quot; data-renderer-start-pos=&quot;151&quot;&gt;&lt;span style=&quot;background-color: rgb(235, 236, 240);&quot;&gt;Deve gerar com um link com token (1 dia de validade) para validação. &lt;/span&gt;&lt;/p&gt;&lt;/li&gt;&lt;/ul&gt;" lucidchartObjectId="XUSho0rWNq1M" id="__zBR7lWoKVZhfvjV7_m-132">
          <mxCell style="html=1;overflow=block;blockSpacing=1;whiteSpace=wrap;fontSize=16.7;fontColor=#3a414a;spacing=9;strokeColor=#5e5e5e;strokeOpacity=100;rounded=1;absoluteArcSize=1;arcSize=9;strokeWidth=2.3;" parent="1" vertex="1">
            <mxGeometry x="340" y="1950" width="300" height="164" as="geometry" />
          </mxCell>
        </UserObject>
        <mxCell id="__zBR7lWoKVZhfvjV7_m-144" style="edgeStyle=orthogonalEdgeStyle;rounded=0;orthogonalLoop=1;jettySize=auto;html=1;exitX=1;exitY=0.5;exitDx=0;exitDy=0;fontSize=27;strokeWidth=1;" parent="1" source="__zBR7lWoKVZhfvjV7_m-135" target="__zBR7lWoKVZhfvjV7_m-136" edge="1">
          <mxGeometry relative="1" as="geometry" />
        </mxCell>
        <UserObject label="&lt;b&gt;[POST] /ib/login/redefinePassword&lt;/b&gt;&lt;br&gt;&lt;br&gt;{ access_password, access_password_confirm }" lucidchartObjectId="9_ShsK29GTZY" id="__zBR7lWoKVZhfvjV7_m-135">
          <mxCell style="html=1;overflow=block;blockSpacing=1;whiteSpace=wrap;fontSize=16.7;spacing=9;strokeColor=#6c8ebf;strokeOpacity=100;rounded=1;absoluteArcSize=1;arcSize=9;strokeWidth=0.8;fillColor=#dae8fc;" parent="1" vertex="1">
            <mxGeometry x="980" y="1963" width="310" height="138" as="geometry" />
          </mxCell>
        </UserObject>
        <mxCell id="__zBR7lWoKVZhfvjV7_m-145" style="edgeStyle=orthogonalEdgeStyle;rounded=0;orthogonalLoop=1;jettySize=auto;html=1;exitX=1;exitY=0.5;exitDx=0;exitDy=0;fontSize=27;strokeWidth=1;" parent="1" source="__zBR7lWoKVZhfvjV7_m-136" target="__zBR7lWoKVZhfvjV7_m-138" edge="1">
          <mxGeometry relative="1" as="geometry" />
        </mxCell>
        <mxCell id="__zBR7lWoKVZhfvjV7_m-148" style="edgeStyle=orthogonalEdgeStyle;rounded=0;orthogonalLoop=1;jettySize=auto;html=1;exitX=0.5;exitY=1;exitDx=0;exitDy=0;entryX=0.5;entryY=0;entryDx=0;entryDy=0;fontSize=27;strokeWidth=1;" parent="1" source="__zBR7lWoKVZhfvjV7_m-136" target="__zBR7lWoKVZhfvjV7_m-137" edge="1">
          <mxGeometry relative="1" as="geometry" />
        </mxCell>
        <UserObject label="tokenMatch?" lucidchartObjectId="oaThQ4QMQbFh" id="__zBR7lWoKVZhfvjV7_m-136">
          <mxCell style="html=1;overflow=block;blockSpacing=1;whiteSpace=wrap;rhombus;fontSize=16.7;fontColor=#3a414a;spacing=3.8;strokeColor=#3a414a;strokeOpacity=100;rounded=1;absoluteArcSize=1;arcSize=9;strokeWidth=0.8;" parent="1" vertex="1">
            <mxGeometry x="1415" y="1987" width="175" height="90" as="geometry" />
          </mxCell>
        </UserObject>
        <UserObject label="return&lt;br&gt;&lt;br&gt;&lt;b&gt;&lt;font color=&quot;#ff0080&quot;&gt;false&lt;/font&gt;&lt;/b&gt;" lucidchartObjectId="9_ShsK29GTZY" id="__zBR7lWoKVZhfvjV7_m-137">
          <mxCell style="html=1;overflow=block;blockSpacing=1;whiteSpace=wrap;fontSize=16.7;spacing=9;strokeColor=#d79b00;strokeOpacity=100;rounded=1;absoluteArcSize=1;arcSize=9;strokeWidth=0.8;fillColor=#ffe6cc;" parent="1" vertex="1">
            <mxGeometry x="1442.5" y="2157" width="120" height="90" as="geometry" />
          </mxCell>
        </UserObject>
        <mxCell id="__zBR7lWoKVZhfvjV7_m-146" style="edgeStyle=orthogonalEdgeStyle;rounded=0;orthogonalLoop=1;jettySize=auto;html=1;exitX=1;exitY=0.5;exitDx=0;exitDy=0;fontSize=27;strokeWidth=1;" parent="1" source="__zBR7lWoKVZhfvjV7_m-138" target="__zBR7lWoKVZhfvjV7_m-140" edge="1">
          <mxGeometry relative="1" as="geometry" />
        </mxCell>
        <mxCell id="__zBR7lWoKVZhfvjV7_m-149" style="edgeStyle=orthogonalEdgeStyle;rounded=0;orthogonalLoop=1;jettySize=auto;html=1;exitX=0.5;exitY=1;exitDx=0;exitDy=0;fontSize=27;strokeWidth=1;" parent="1" source="__zBR7lWoKVZhfvjV7_m-138" target="__zBR7lWoKVZhfvjV7_m-139" edge="1">
          <mxGeometry relative="1" as="geometry" />
        </mxCell>
        <UserObject label="passwordMatch?" lucidchartObjectId="oaThQ4QMQbFh" id="__zBR7lWoKVZhfvjV7_m-138">
          <mxCell style="html=1;overflow=block;blockSpacing=1;whiteSpace=wrap;rhombus;fontSize=16.7;fontColor=#3a414a;spacing=3.8;strokeColor=#3a414a;strokeOpacity=100;rounded=1;absoluteArcSize=1;arcSize=9;strokeWidth=0.8;" parent="1" vertex="1">
            <mxGeometry x="1670" y="1987" width="175" height="90" as="geometry" />
          </mxCell>
        </UserObject>
        <UserObject label="return&lt;br&gt;&lt;br&gt;&lt;b&gt;&lt;font color=&quot;#ff0080&quot;&gt;false&lt;/font&gt;&lt;/b&gt;" lucidchartObjectId="9_ShsK29GTZY" id="__zBR7lWoKVZhfvjV7_m-139">
          <mxCell style="html=1;overflow=block;blockSpacing=1;whiteSpace=wrap;fontSize=16.7;spacing=9;strokeColor=#d79b00;strokeOpacity=100;rounded=1;absoluteArcSize=1;arcSize=9;strokeWidth=0.8;fillColor=#ffe6cc;" parent="1" vertex="1">
            <mxGeometry x="1697.5" y="2157" width="120" height="90" as="geometry" />
          </mxCell>
        </UserObject>
        <mxCell id="__zBR7lWoKVZhfvjV7_m-147" style="edgeStyle=orthogonalEdgeStyle;rounded=0;orthogonalLoop=1;jettySize=auto;html=1;exitX=1;exitY=0.5;exitDx=0;exitDy=0;fontSize=27;strokeWidth=1;" parent="1" source="__zBR7lWoKVZhfvjV7_m-140" target="__zBR7lWoKVZhfvjV7_m-142" edge="1">
          <mxGeometry relative="1" as="geometry" />
        </mxCell>
        <mxCell id="__zBR7lWoKVZhfvjV7_m-150" style="edgeStyle=orthogonalEdgeStyle;rounded=0;orthogonalLoop=1;jettySize=auto;html=1;exitX=0.5;exitY=1;exitDx=0;exitDy=0;fontSize=27;strokeWidth=1;" parent="1" source="__zBR7lWoKVZhfvjV7_m-140" target="__zBR7lWoKVZhfvjV7_m-141" edge="1">
          <mxGeometry relative="1" as="geometry" />
        </mxCell>
        <UserObject label="redefineAccessPassword()" lucidchartObjectId="XUSho0rWNq1M" id="__zBR7lWoKVZhfvjV7_m-140">
          <mxCell style="html=1;overflow=block;blockSpacing=1;whiteSpace=wrap;fontSize=16.7;fontColor=#3a414a;spacing=9;strokeColor=#5e5e5e;strokeOpacity=100;rounded=1;absoluteArcSize=1;arcSize=9;strokeWidth=2.3;" parent="1" vertex="1">
            <mxGeometry x="1910" y="1987" width="210" height="90" as="geometry" />
          </mxCell>
        </UserObject>
        <mxCell id="__zBR7lWoKVZhfvjV7_m-141" value="&lt;b&gt;throw Error&lt;/b&gt;" style="triangle;whiteSpace=wrap;html=1;rotation=-90;fillColor=#f8cecc;strokeColor=#b85450;fontSize=13;" parent="1" vertex="1">
          <mxGeometry x="1975" y="2149" width="80" height="106" as="geometry" />
        </mxCell>
        <UserObject label="return&lt;br&gt;&lt;br&gt;&lt;b style=&quot;&quot;&gt;&lt;font color=&quot;#3333ff&quot;&gt;true&lt;/font&gt;&lt;/b&gt;" lucidchartObjectId="9_ShsK29GTZY" id="__zBR7lWoKVZhfvjV7_m-142">
          <mxCell style="html=1;overflow=block;blockSpacing=1;whiteSpace=wrap;fontSize=16.7;spacing=9;strokeColor=#d79b00;strokeOpacity=100;rounded=1;absoluteArcSize=1;arcSize=9;strokeWidth=0.8;fillColor=#ffe6cc;" parent="1" vertex="1">
            <mxGeometry x="2170" y="1987" width="120" height="90" as="geometry" />
          </mxCell>
        </UserObject>
        <mxCell id="__zBR7lWoKVZhfvjV7_m-152" value="Tela Login" style="swimlane;fontStyle=1;childLayout=stackLayout;horizontal=1;startSize=30;horizontalStack=0;resizeParent=1;resizeParentMax=0;resizeLast=0;collapsible=1;marginBottom=0;labelBackgroundColor=none;fontSize=18;" parent="1" vertex="1">
          <mxGeometry x="52" y="2580" width="140" height="60" as="geometry" />
        </mxCell>
        <mxCell id="__zBR7lWoKVZhfvjV7_m-153" value="field: CPF" style="text;strokeColor=none;fillColor=none;align=left;verticalAlign=middle;spacingLeft=4;spacingRight=4;overflow=hidden;points=[[0,0.5],[1,0.5]];portConstraint=eastwest;rotatable=0;labelBackgroundColor=none;fontSize=15;" parent="__zBR7lWoKVZhfvjV7_m-152" vertex="1">
          <mxGeometry y="30" width="140" height="30" as="geometry" />
        </mxCell>
        <UserObject label="&lt;b&gt;[POST] /ib/login/hasDocument&lt;/b&gt;&lt;br&gt;&lt;br&gt;{ document: cpf }" lucidchartObjectId="9_ShsK29GTZY" id="__zBR7lWoKVZhfvjV7_m-157">
          <mxCell style="html=1;overflow=block;blockSpacing=1;whiteSpace=wrap;fontSize=16.7;spacing=9;strokeColor=#6c8ebf;strokeOpacity=100;rounded=1;absoluteArcSize=1;arcSize=9;strokeWidth=0.8;fillColor=#dae8fc;" parent="1" vertex="1">
            <mxGeometry x="265" y="2556" width="198" height="138" as="geometry" />
          </mxCell>
        </UserObject>
        <mxCell id="__zBR7lWoKVZhfvjV7_m-156" style="edgeStyle=orthogonalEdgeStyle;rounded=0;orthogonalLoop=1;jettySize=auto;html=1;exitX=1;exitY=0.5;exitDx=0;exitDy=0;fontSize=18;strokeWidth=1;" parent="1" source="__zBR7lWoKVZhfvjV7_m-153" target="__zBR7lWoKVZhfvjV7_m-157" edge="1">
          <mxGeometry relative="1" as="geometry">
            <mxPoint x="294.090909090909" y="2625.7272727272725" as="targetPoint" />
          </mxGeometry>
        </mxCell>
        <mxCell id="__zBR7lWoKVZhfvjV7_m-162" value="&lt;b&gt;throw Error&lt;br&gt;404&lt;br&gt;&lt;/b&gt;" style="triangle;whiteSpace=wrap;html=1;rotation=-90;fillColor=#f8cecc;strokeColor=#b85450;fontSize=13;" parent="1" vertex="1">
          <mxGeometry x="390" y="1134" width="80" height="106" as="geometry" />
        </mxCell>
        <mxCell id="__zBR7lWoKVZhfvjV7_m-163" value="Yes" style="edgeStyle=orthogonalEdgeStyle;rounded=0;orthogonalLoop=1;jettySize=auto;html=1;exitX=1;exitY=0.5;exitDx=0;exitDy=0;strokeWidth=1;fontStyle=1;fontSize=13;entryX=0;entryY=0.25;entryDx=0;entryDy=0;" parent="1" source="__zBR7lWoKVZhfvjV7_m-164" target="__zBR7lWoKVZhfvjV7_m-168" edge="1">
          <mxGeometry relative="1" as="geometry">
            <mxPoint x="759" y="2625" as="targetPoint" />
          </mxGeometry>
        </mxCell>
        <UserObject label="isFirstAccess?" lucidchartObjectId="oaThQ4QMQbFh" id="__zBR7lWoKVZhfvjV7_m-164">
          <mxCell style="html=1;overflow=block;blockSpacing=1;whiteSpace=wrap;rhombus;fontSize=16.7;fontColor=#3a414a;spacing=3.8;strokeColor=#3a414a;strokeOpacity=100;rounded=1;absoluteArcSize=1;arcSize=9;strokeWidth=0.8;" parent="1" vertex="1">
            <mxGeometry x="536" y="2564" width="120" height="122" as="geometry" />
          </mxCell>
        </UserObject>
        <UserObject label="" lucidchartObjectId="YcThyY7UAlBf" id="__zBR7lWoKVZhfvjV7_m-165">
          <mxCell style="html=1;jettySize=18;whiteSpace=wrap;fontSize=13.3;fontColor=#333333;fontStyle=1;strokeColor=#3a414a;strokeOpacity=100;strokeWidth=0.8;rounded=1;arcSize=12;edgeStyle=orthogonalEdgeStyle;startArrow=none;endArrow=block;endFill=1;exitX=0.5;exitY=0.988;exitPerimeter=0;" parent="1" source="__zBR7lWoKVZhfvjV7_m-164" target="__zBR7lWoKVZhfvjV7_m-171" edge="1">
            <mxGeometry width="100" height="100" relative="1" as="geometry">
              <Array as="points" />
              <mxPoint x="596" y="2746" as="targetPoint" />
            </mxGeometry>
          </mxCell>
        </UserObject>
        <mxCell id="__zBR7lWoKVZhfvjV7_m-166" value="No" style="text;html=1;resizable=0;labelBackgroundColor=default;align=center;verticalAlign=middle;fontStyle=1;fontColor=#333333;fontSize=13.3;" parent="__zBR7lWoKVZhfvjV7_m-165" vertex="1">
          <mxGeometry relative="1" as="geometry" />
        </mxCell>
        <mxCell id="__zBR7lWoKVZhfvjV7_m-168" value="Tela Login" style="swimlane;fontStyle=1;childLayout=stackLayout;horizontal=1;startSize=30;horizontalStack=0;resizeParent=1;resizeParentMax=0;resizeLast=0;collapsible=1;marginBottom=0;labelBackgroundColor=none;fontSize=18;" parent="1" vertex="1">
          <mxGeometry x="762" y="2564" width="140" height="90" as="geometry" />
        </mxCell>
        <mxCell id="__zBR7lWoKVZhfvjV7_m-169" value="field: CPF" style="text;strokeColor=none;fillColor=none;align=left;verticalAlign=middle;spacingLeft=4;spacingRight=4;overflow=hidden;points=[[0,0.5],[1,0.5]];portConstraint=eastwest;rotatable=0;labelBackgroundColor=none;fontSize=15;" parent="__zBR7lWoKVZhfvjV7_m-168" vertex="1">
          <mxGeometry y="30" width="140" height="30" as="geometry" />
        </mxCell>
        <mxCell id="__zBR7lWoKVZhfvjV7_m-170" value="button: Continuar" style="text;strokeColor=none;fillColor=none;align=left;verticalAlign=middle;spacingLeft=4;spacingRight=4;overflow=hidden;points=[[0,0.5],[1,0.5]];portConstraint=eastwest;rotatable=0;labelBackgroundColor=none;fontSize=15;" parent="__zBR7lWoKVZhfvjV7_m-168" vertex="1">
          <mxGeometry y="60" width="140" height="30" as="geometry" />
        </mxCell>
        <mxCell id="__zBR7lWoKVZhfvjV7_m-171" value="Tela Login" style="swimlane;fontStyle=1;childLayout=stackLayout;horizontal=1;startSize=30;horizontalStack=0;resizeParent=1;resizeParentMax=0;resizeLast=0;collapsible=1;marginBottom=0;labelBackgroundColor=none;fontSize=18;" parent="1" vertex="1">
          <mxGeometry x="481.5" y="2754" width="229" height="150" as="geometry" />
        </mxCell>
        <mxCell id="__zBR7lWoKVZhfvjV7_m-172" value="field: CPF" style="text;strokeColor=none;fillColor=none;align=left;verticalAlign=middle;spacingLeft=4;spacingRight=4;overflow=hidden;points=[[0,0.5],[1,0.5]];portConstraint=eastwest;rotatable=0;labelBackgroundColor=none;fontSize=15;" parent="__zBR7lWoKVZhfvjV7_m-171" vertex="1">
          <mxGeometry y="30" width="229" height="30" as="geometry" />
        </mxCell>
        <mxCell id="__zBR7lWoKVZhfvjV7_m-174" value="field: Senha de Acesso" style="text;strokeColor=none;fillColor=none;align=left;verticalAlign=middle;spacingLeft=4;spacingRight=4;overflow=hidden;points=[[0,0.5],[1,0.5]];portConstraint=eastwest;rotatable=0;labelBackgroundColor=none;fontSize=15;" parent="__zBR7lWoKVZhfvjV7_m-171" vertex="1">
          <mxGeometry y="60" width="229" height="30" as="geometry" />
        </mxCell>
        <mxCell id="__zBR7lWoKVZhfvjV7_m-173" value="button: Acessar Conta" style="text;strokeColor=none;fillColor=none;align=left;verticalAlign=middle;spacingLeft=4;spacingRight=4;overflow=hidden;points=[[0,0.5],[1,0.5]];portConstraint=eastwest;rotatable=0;labelBackgroundColor=none;fontSize=15;" parent="__zBR7lWoKVZhfvjV7_m-171" vertex="1">
          <mxGeometry y="90" width="229" height="30" as="geometry" />
        </mxCell>
        <mxCell id="__zBR7lWoKVZhfvjV7_m-175" value="button: Esqueci Minha Senha" style="text;strokeColor=none;fillColor=none;align=left;verticalAlign=middle;spacingLeft=4;spacingRight=4;overflow=hidden;points=[[0,0.5],[1,0.5]];portConstraint=eastwest;rotatable=0;labelBackgroundColor=none;fontSize=15;" parent="__zBR7lWoKVZhfvjV7_m-171" vertex="1">
          <mxGeometry y="120" width="229" height="30" as="geometry" />
        </mxCell>
        <mxCell id="__zBR7lWoKVZhfvjV7_m-176" style="edgeStyle=orthogonalEdgeStyle;rounded=0;orthogonalLoop=1;jettySize=auto;html=1;exitX=1;exitY=0.5;exitDx=0;exitDy=0;fontSize=18;strokeWidth=1;" parent="1" source="__zBR7lWoKVZhfvjV7_m-175" target="__zBR7lWoKVZhfvjV7_m-178" edge="1">
          <mxGeometry relative="1" as="geometry">
            <mxPoint x="830" y="2889" as="targetPoint" />
          </mxGeometry>
        </mxCell>
        <UserObject label="&lt;b&gt;[POST] /ib/login/recoverPassword&lt;/b&gt;&lt;br&gt;&lt;br&gt;{ document }" lucidchartObjectId="9_ShsK29GTZY" id="__zBR7lWoKVZhfvjV7_m-178">
          <mxCell style="html=1;overflow=block;blockSpacing=1;whiteSpace=wrap;fontSize=16.7;spacing=9;strokeColor=#6c8ebf;strokeOpacity=100;rounded=1;absoluteArcSize=1;arcSize=9;strokeWidth=0.8;fillColor=#dae8fc;" parent="1" vertex="1">
            <mxGeometry x="752" y="2754" width="220" height="138" as="geometry" />
          </mxCell>
        </UserObject>
        <mxCell id="__zBR7lWoKVZhfvjV7_m-179" value="Recover Password Email" style="swimlane;fontStyle=1;childLayout=stackLayout;horizontal=1;startSize=30;horizontalStack=0;resizeParent=1;resizeParentMax=0;resizeLast=0;collapsible=1;marginBottom=0;labelBackgroundColor=none;fontSize=18;" parent="1" vertex="1">
          <mxGeometry x="1054" y="2809" width="229" height="60" as="geometry" />
        </mxCell>
        <mxCell id="__zBR7lWoKVZhfvjV7_m-183" value="button: Criar Senha" style="text;strokeColor=none;fillColor=none;align=left;verticalAlign=middle;spacingLeft=4;spacingRight=4;overflow=hidden;points=[[0,0.5],[1,0.5]];portConstraint=eastwest;rotatable=0;labelBackgroundColor=none;fontSize=15;" parent="__zBR7lWoKVZhfvjV7_m-179" vertex="1">
          <mxGeometry y="30" width="229" height="30" as="geometry" />
        </mxCell>
        <mxCell id="__zBR7lWoKVZhfvjV7_m-184" value="Tela Criar Senha de Acesso" style="swimlane;fontStyle=1;childLayout=stackLayout;horizontal=1;startSize=30;horizontalStack=0;resizeParent=1;resizeParentMax=0;resizeLast=0;collapsible=1;marginBottom=0;labelBackgroundColor=none;fontSize=18;" parent="1" vertex="1">
          <mxGeometry x="1339" y="2765" width="254" height="120" as="geometry" />
        </mxCell>
        <mxCell id="__zBR7lWoKVZhfvjV7_m-185" value="field: Senha de Acesso" style="text;strokeColor=none;fillColor=none;align=left;verticalAlign=middle;spacingLeft=4;spacingRight=4;overflow=hidden;points=[[0,0.5],[1,0.5]];portConstraint=eastwest;rotatable=0;labelBackgroundColor=none;fontSize=15;" parent="__zBR7lWoKVZhfvjV7_m-184" vertex="1">
          <mxGeometry y="30" width="254" height="30" as="geometry" />
        </mxCell>
        <mxCell id="__zBR7lWoKVZhfvjV7_m-186" value="field: Repita a Senha de Acesso" style="text;strokeColor=none;fillColor=none;align=left;verticalAlign=middle;spacingLeft=4;spacingRight=4;overflow=hidden;points=[[0,0.5],[1,0.5]];portConstraint=eastwest;rotatable=0;labelBackgroundColor=none;fontSize=15;" parent="__zBR7lWoKVZhfvjV7_m-184" vertex="1">
          <mxGeometry y="60" width="254" height="30" as="geometry" />
        </mxCell>
        <mxCell id="__zBR7lWoKVZhfvjV7_m-187" value="button: Concluir" style="text;strokeColor=none;fillColor=none;align=left;verticalAlign=middle;spacingLeft=4;spacingRight=4;overflow=hidden;points=[[0,0.5],[1,0.5]];portConstraint=eastwest;rotatable=0;labelBackgroundColor=none;fontSize=15;" parent="__zBR7lWoKVZhfvjV7_m-184" vertex="1">
          <mxGeometry y="90" width="254" height="30" as="geometry" />
        </mxCell>
        <mxCell id="__zBR7lWoKVZhfvjV7_m-189" style="edgeStyle=orthogonalEdgeStyle;rounded=0;orthogonalLoop=1;jettySize=auto;html=1;exitX=1;exitY=0.5;exitDx=0;exitDy=0;entryX=0;entryY=0.25;entryDx=0;entryDy=0;fontSize=18;strokeWidth=1;" parent="1" source="__zBR7lWoKVZhfvjV7_m-183" target="__zBR7lWoKVZhfvjV7_m-184" edge="1">
          <mxGeometry relative="1" as="geometry" />
        </mxCell>
        <mxCell id="__zBR7lWoKVZhfvjV7_m-196" style="edgeStyle=orthogonalEdgeStyle;rounded=0;orthogonalLoop=1;jettySize=auto;html=1;exitX=1;exitY=0.5;exitDx=0;exitDy=0;entryX=0;entryY=0.25;entryDx=0;entryDy=0;fontSize=18;strokeWidth=1;" parent="1" source="__zBR7lWoKVZhfvjV7_m-190" target="__zBR7lWoKVZhfvjV7_m-192" edge="1">
          <mxGeometry relative="1" as="geometry" />
        </mxCell>
        <UserObject label="&lt;b&gt;[POST] /ib/login/redefinePassword&lt;/b&gt;&lt;br&gt;&lt;br&gt;{ access_password, access_password_confirm }" lucidchartObjectId="9_ShsK29GTZY" id="__zBR7lWoKVZhfvjV7_m-190">
          <mxCell style="html=1;overflow=block;blockSpacing=1;whiteSpace=wrap;fontSize=16.7;spacing=9;strokeColor=#6c8ebf;strokeOpacity=100;rounded=1;absoluteArcSize=1;arcSize=9;strokeWidth=0.8;fillColor=#dae8fc;" parent="1" vertex="1">
            <mxGeometry x="1687" y="2765" width="310" height="138" as="geometry" />
          </mxCell>
        </UserObject>
        <mxCell id="__zBR7lWoKVZhfvjV7_m-191" style="edgeStyle=orthogonalEdgeStyle;rounded=0;orthogonalLoop=1;jettySize=auto;html=1;exitX=1;exitY=0.5;exitDx=0;exitDy=0;fontSize=18;strokeWidth=1;" parent="1" source="__zBR7lWoKVZhfvjV7_m-187" target="__zBR7lWoKVZhfvjV7_m-190" edge="1">
          <mxGeometry relative="1" as="geometry" />
        </mxCell>
        <mxCell id="__zBR7lWoKVZhfvjV7_m-192" value="Tela Criar Senha de Acesso - Sucesso" style="swimlane;fontStyle=1;childLayout=stackLayout;horizontal=1;startSize=30;horizontalStack=0;resizeParent=1;resizeParentMax=0;resizeLast=0;collapsible=1;marginBottom=0;labelBackgroundColor=none;fontSize=18;" parent="1" vertex="1">
          <mxGeometry x="2092" y="2765" width="381" height="60" as="geometry" />
        </mxCell>
        <mxCell id="__zBR7lWoKVZhfvjV7_m-195" value="button: Ir para Login" style="text;strokeColor=none;fillColor=none;align=left;verticalAlign=middle;spacingLeft=4;spacingRight=4;overflow=hidden;points=[[0,0.5],[1,0.5]];portConstraint=eastwest;rotatable=0;labelBackgroundColor=none;fontSize=15;" parent="__zBR7lWoKVZhfvjV7_m-192" vertex="1">
          <mxGeometry y="30" width="381" height="30" as="geometry" />
        </mxCell>
        <mxCell id="__zBR7lWoKVZhfvjV7_m-201" style="edgeStyle=orthogonalEdgeStyle;rounded=0;orthogonalLoop=1;jettySize=auto;html=1;exitX=1;exitY=0.5;exitDx=0;exitDy=0;entryX=0.5;entryY=0;entryDx=0;entryDy=0;fontSize=18;strokeWidth=1;" parent="1" source="__zBR7lWoKVZhfvjV7_m-195" target="__zBR7lWoKVZhfvjV7_m-152" edge="1">
          <mxGeometry relative="1" as="geometry">
            <Array as="points">
              <mxPoint x="2498" y="2810" />
              <mxPoint x="2498" y="2861" />
              <mxPoint x="2521" y="2861" />
              <mxPoint x="2521" y="2465" />
              <mxPoint x="122" y="2465" />
            </Array>
          </mxGeometry>
        </mxCell>
        <mxCell id="__zBR7lWoKVZhfvjV7_m-206" style="edgeStyle=orthogonalEdgeStyle;rounded=0;orthogonalLoop=1;jettySize=auto;html=1;exitX=1;exitY=0.5;exitDx=0;exitDy=0;entryX=0;entryY=0.5;entryDx=0;entryDy=0;dashed=1;fontSize=18;strokeWidth=2;fillColor=#dae8fc;strokeColor=#6c8ebf;" parent="1" source="__zBR7lWoKVZhfvjV7_m-203" target="__zBR7lWoKVZhfvjV7_m-205" edge="1">
          <mxGeometry relative="1" as="geometry" />
        </mxCell>
        <UserObject label="return&lt;br&gt;&lt;br&gt;&lt;b style=&quot;&quot;&gt;&lt;font color=&quot;#3333ff&quot;&gt;true&lt;/font&gt;&lt;/b&gt;" lucidchartObjectId="9_ShsK29GTZY" id="__zBR7lWoKVZhfvjV7_m-203">
          <mxCell style="html=1;overflow=block;blockSpacing=1;whiteSpace=wrap;fontSize=16.7;spacing=9;strokeColor=#d79b00;strokeOpacity=100;rounded=1;absoluteArcSize=1;arcSize=9;strokeWidth=0.8;fillColor=#ffe6cc;" parent="1" vertex="1">
            <mxGeometry x="810" y="974" width="120" height="90" as="geometry" />
          </mxCell>
        </UserObject>
        <mxCell id="__zBR7lWoKVZhfvjV7_m-207" style="edgeStyle=orthogonalEdgeStyle;rounded=0;orthogonalLoop=1;jettySize=auto;html=1;exitX=1;exitY=0.5;exitDx=0;exitDy=0;fontSize=18;strokeWidth=1;" parent="1" source="__zBR7lWoKVZhfvjV7_m-205" target="__zBR7lWoKVZhfvjV7_m-82" edge="1">
          <mxGeometry relative="1" as="geometry" />
        </mxCell>
        <UserObject label="&lt;b&gt;[POST] /ib/login/firstAccess&lt;/b&gt;&lt;br&gt;&lt;br&gt;{ document }" lucidchartObjectId="9_ShsK29GTZY" id="__zBR7lWoKVZhfvjV7_m-205">
          <mxCell style="html=1;overflow=block;blockSpacing=1;whiteSpace=wrap;fontSize=16.7;spacing=9;strokeColor=#6c8ebf;strokeOpacity=100;rounded=1;absoluteArcSize=1;arcSize=9;strokeWidth=0.8;fillColor=#dae8fc;" parent="1" vertex="1">
            <mxGeometry x="1018" y="950" width="243" height="138" as="geometry" />
          </mxCell>
        </UserObject>
        <mxCell id="__zBR7lWoKVZhfvjV7_m-211" style="edgeStyle=orthogonalEdgeStyle;rounded=0;orthogonalLoop=1;jettySize=auto;html=1;exitX=1;exitY=0.5;exitDx=0;exitDy=0;fontSize=18;strokeWidth=1;" parent="1" source="__zBR7lWoKVZhfvjV7_m-208" target="__zBR7lWoKVZhfvjV7_m-210" edge="1">
          <mxGeometry relative="1" as="geometry" />
        </mxCell>
        <UserObject label="&lt;b&gt;[POST] /ib/login/firstAccess&lt;/b&gt;&lt;br&gt;&lt;br&gt;{ document }" lucidchartObjectId="9_ShsK29GTZY" id="__zBR7lWoKVZhfvjV7_m-208">
          <mxCell style="html=1;overflow=block;blockSpacing=1;whiteSpace=wrap;fontSize=16.7;spacing=9;strokeColor=#6c8ebf;strokeOpacity=100;rounded=1;absoluteArcSize=1;arcSize=9;strokeWidth=0.8;fillColor=#dae8fc;" parent="1" vertex="1">
            <mxGeometry x="1034" y="2564" width="243" height="138" as="geometry" />
          </mxCell>
        </UserObject>
        <mxCell id="__zBR7lWoKVZhfvjV7_m-209" style="edgeStyle=orthogonalEdgeStyle;rounded=0;orthogonalLoop=1;jettySize=auto;html=1;exitX=1;exitY=0.5;exitDx=0;exitDy=0;fontSize=18;strokeWidth=1;" parent="1" source="__zBR7lWoKVZhfvjV7_m-170" target="__zBR7lWoKVZhfvjV7_m-208" edge="1">
          <mxGeometry relative="1" as="geometry" />
        </mxCell>
        <UserObject label="hasAccessPassword?" lucidchartObjectId="oaThQ4QMQbFh" id="__zBR7lWoKVZhfvjV7_m-210">
          <mxCell style="html=1;overflow=block;blockSpacing=1;whiteSpace=wrap;rhombus;fontSize=16.7;fontColor=#3a414a;spacing=3.8;strokeColor=#3a414a;strokeOpacity=100;rounded=1;absoluteArcSize=1;arcSize=9;strokeWidth=0.8;" parent="1" vertex="1">
            <mxGeometry x="1391" y="2588" width="220" height="90" as="geometry" />
          </mxCell>
        </UserObject>
        <mxCell id="__zBR7lWoKVZhfvjV7_m-213" value="&lt;span style=&quot;font-size: 27px;&quot;&gt;&lt;b&gt;FLUXOGRAMA FRONT - BACK&lt;/b&gt;&lt;/span&gt;" style="text;html=1;align=center;verticalAlign=middle;resizable=0;points=[];autosize=1;strokeColor=none;fillColor=none;fontSize=13;" parent="1" vertex="1">
          <mxGeometry x="-20" y="2402" width="405" height="25" as="geometry" />
        </mxCell>
      </root>
    </mxGraphModel>
  </diagram>
</mxfile>
